<?xml version='1.0' encoding='utf-8'?>
<svg xmlns="http://www.w3.org/2000/svg" version="1.1" viewBox="55.6 33.2 363.9 302.8">
<path d="M0 0 C6.11125214 3.72404428 11.03757347 8.47408021 16.03125 13.5703125 C17.05412109 14.54097656 17.05412109 14.54097656 18.09765625 15.53125 C19.45930692 16.82655574 20.75653275 18.18936882 22.03125 19.5703125 C22.03125 20.2303125 22.03125 20.8903125 22.03125 21.5703125 C22.57523438 21.79847656 23.11921875 22.02664062 23.6796875 22.26171875 C26.7149119 23.95075559 29.12931734 26.1570068 31.65625 28.5078125 C32.17751465 28.98782715 32.6987793 29.4678418 33.23583984 29.96240234 C37.79363398 34.22123398 41.9638652 38.76194087 46.0703125 43.453125 C47.85430313 45.62863794 47.85430313 45.62863794 50.03125 46.5703125 C50.06863281 45.961875 50.10601562 45.3534375 50.14453125 44.7265625 C50.64694945 38.02765317 51.69803341 31.54422212 53.01489258 24.96679688 C53.58255925 22.10847772 54.03125 19.49371827 54.03125 16.5703125 C53.62132812 17.2921875 53.21140625 18.0140625 52.7890625 18.7578125 C52.25023437 19.6859375 51.71140625 20.6140625 51.15625 21.5703125 C50.62257813 22.4984375 50.08890625 23.4265625 49.5390625 24.3828125 C49.04148437 25.1046875 48.54390625 25.8265625 48.03125 26.5703125 C47.37125 26.5703125 46.71125 26.5703125 46.03125 26.5703125 C48.86419533 14.8906256 53.59639502 5.97738144 64.03125 -0.4296875 C72.08643742 -5.09394551 79.97948353 -4.86417229 89.03125 -4.4296875 C88.44006546 -1.15808375 87.63121359 1.83417807 86.46875 4.9453125 C83.68384798 13.32759184 85.30057899 19.7739345 89.03125 27.5703125 C91.26156643 31.42875992 93.62078888 35.20577505 96.05786133 38.93676758 C101.04820836 46.71034181 103.41616097 53.90816974 103.71875 63.1328125 C103.75291016 63.85533203 103.78707031 64.57785156 103.82226562 65.32226562 C103.90333848 67.07112288 103.96899329 68.82068437 104.03125 70.5703125 C104.9078125 70.83070312 105.784375 71.09109375 106.6875 71.359375 C126.41732995 78.5045237 144.45180718 98.61621753 153.4375 117.08203125 C157.6703826 126.3466493 159.47156746 135.3633384 158.03125 145.5703125 C155.632106 149.81610054 153.64406377 152.74664194 149.03125 154.5703125 C142.45536895 154.95712903 138.93129968 151.40746819 134.265625 147.28515625 C132.10403306 145.26589296 132.10403306 145.26589296 129.03125 145.5703125 C128.96131836 146.12904053 128.89138672 146.68776855 128.81933594 147.26342773 C128.487629 149.84695548 128.1345652 152.42715456 127.78125 155.0078125 C127.67167969 155.88630859 127.56210937 156.76480469 127.44921875 157.66992188 C126.40051602 165.14882821 124.36492863 171.54283752 119.71875 177.5703125 C116.36745672 180.0642982 114.18761842 180.49609164 110.03125 180.5703125 C109.226875 180.1578125 108.4225 179.7453125 107.59375 179.3203125 C105.10239073 178.27766178 105.10239073 178.27766178 103.19140625 179.4765625 C101.81621515 180.38455816 100.4530297 181.3109624 99.1015625 182.25390625 C96.17248489 184.11635749 93.39734481 184.79891577 90.03125 185.5703125 C90.26908203 186.63958984 90.26908203 186.63958984 90.51171875 187.73046875 C91.62541094 193.8180945 91.88238247 199.47794517 89.53125 205.2578125 C87.03125 207.5703125 87.03125 207.5703125 83.28125 208.3828125 C78.57097042 208.06585911 76.01162799 205.43093543 72.79296875 202.19921875 C71.02364489 200.33896492 71.02364489 200.33896492 68.03125 199.5703125 C67.86689453 200.53130859 67.86689453 200.53130859 67.69921875 201.51171875 C65.32927513 214.44043555 65.32927513 214.44043555 60.46875 218.9453125 C56.56687946 221.54655953 53.67485539 222.18377963 49.03125 221.5703125 C42.77663832 219.75222632 37.59237849 217.25147068 33.03125 212.5703125 C33.03125 211.5803125 33.03125 210.5903125 33.03125 209.5703125 C35.19999252 210.07635242 37.03092627 210.57015063 39.03125 211.5703125 C38.37125 210.5803125 37.71125 209.5903125 37.03125 208.5703125 C37.36125 207.5803125 37.69125 206.5903125 38.03125 205.5703125 C38.49015625 206.04082031 38.9490625 206.51132813 39.421875 206.99609375 C45.02721607 213.25536779 45.02721607 213.25536779 52.59375 215.9453125 C55.86968612 215.84983356 55.86968612 215.84983356 57.65625 214.51171875 C60.02282896 211.17027061 60.18884799 207.08085533 60.75976562 203.10742188 C61.28723027 199.95823946 61.91918261 197.73117113 63.75390625 195.09765625 C66.80838238 193.04911394 68.41357053 192.98415684 72.03125 193.5703125 C74.8046875 195.3203125 74.8046875 195.3203125 77.40625 197.5703125 C78.28023438 198.3128125 79.15421875 199.0553125 80.0546875 199.8203125 C80.70695312 200.3978125 81.35921875 200.9753125 82.03125 201.5703125 C82.69125 201.2403125 83.35125 200.9103125 84.03125 200.5703125 C84.08566656 198.67480228 84.12423035 196.7788333 84.15625 194.8828125 C84.17945313 193.82707031 84.20265625 192.77132812 84.2265625 191.68359375 C84.0260536 188.48748184 83.52359713 186.39193572 82.03125 183.5703125 C81.04125 182.9103125 80.05125 182.2503125 79.03125 181.5703125 C79.03125 180.9103125 79.03125 180.2503125 79.03125 179.5703125 C79.69125 179.5703125 80.35125 179.5703125 81.03125 179.5703125 C80.60441761 177.98407015 80.16428842 176.4014027 79.71875 174.8203125 C79.47511719 173.93859375 79.23148437 173.056875 78.98046875 172.1484375 C78.00999669 169.51258745 76.82119356 167.71623924 75.03125 165.5703125 C74.60714844 166.07820312 74.18304688 166.58609375 73.74609375 167.109375 C61.62063134 181.34013748 47.12999332 187.91205587 29.03125 191.5703125 C29.00546875 192.52550781 28.9796875 193.48070312 28.953125 194.46484375 C28.40832194 206.8838771 26.49886022 216.10767073 17.5078125 225.34765625 C7.10410312 234.68473927 -5.31747021 237.3435152 -18.85546875 239 C-22.96792946 239.75334914 -25.52087953 241.27173218 -28.96875 243.5703125 C-29.95875 243.5703125 -30.94875 243.5703125 -31.96875 243.5703125 C-32.113125 244.4778125 -32.2575 245.3853125 -32.40625 246.3203125 C-32.96875 249.5703125 -32.96875 249.5703125 -33.58959961 251.55053711 C-34.51963679 256.50494638 -29.72249823 262.90961506 -27.10498047 267.04248047 C-25.1598789 269.65796084 -23.23875605 270.45401898 -20.12890625 271.109375 C-17.35901957 271.70041773 -15.06907886 272.82125306 -12.53125 274.0703125 C-11.68691406 274.4725 -10.84257812 274.8746875 -9.97265625 275.2890625 C-7.96875 276.5703125 -7.96875 276.5703125 -6.96875 279.5703125 C-17.10520621 277.84729824 -17.10520621 277.84729824 -21.28125 276.5078125 C-27.08763516 275.03161288 -33.00102649 274.88483884 -38.96875 274.5703125 C-38.96875 273.9103125 -38.96875 273.2503125 -38.96875 272.5703125 C-36.32136084 271.109684 -35.07426666 270.5703125 -31.96875 270.5703125 C-32.31808594 269.88324219 -32.66742188 269.19617188 -33.02734375 268.48828125 C-33.48238281 267.58722656 -33.93742188 266.68617188 -34.40625 265.7578125 C-34.85871094 264.86449219 -35.31117188 263.97117187 -35.77734375 263.05078125 C-36.96875 260.5703125 -36.96875 260.5703125 -37.96875 257.5703125 C-39.28875 257.9003125 -40.60875 258.2303125 -41.96875 258.5703125 C-41.96875 255.5703125 -41.96875 255.5703125 -40.96875 253.5703125 C-41.95875 252.2503125 -42.94875 250.9303125 -43.96875 249.5703125 C-44.95875 250.2303125 -45.94875 250.8903125 -46.96875 251.5703125 C-47.25474501 253.57227756 -47.53565348 255.57920231 -47.66015625 257.59765625 C-47.96875 259.5703125 -47.96875 259.5703125 -49.96875 262.5703125 C-49.4634375 263.34117187 -48.958125 264.11203125 -48.4375 264.90625 C-47.7878125 265.90914063 -47.138125 266.91203125 -46.46875 267.9453125 C-45.8190625 268.94304687 -45.169375 269.94078125 -44.5 270.96875 C-42.96875 273.5703125 -42.96875 273.5703125 -42.96875 275.5703125 C-42.14632812 275.52390625 -41.32390625 275.4775 -40.4765625 275.4296875 C-32.91088231 275.18506966 -26.61167974 275.68107585 -19.96875 279.5703125 C-19.63875 280.2303125 -19.30875 280.8903125 -18.96875 281.5703125 C-21.60875 281.9003125 -24.24875 282.2303125 -26.96875 282.5703125 C-26.14375 283.0240625 -25.31875 283.4778125 -24.46875 283.9453125 C-23.64375 284.4815625 -22.81875 285.0178125 -21.96875 285.5703125 C-21.96875 286.2303125 -21.96875 286.8903125 -21.96875 287.5703125 C-22.86013672 287.29767578 -22.86013672 287.29767578 -23.76953125 287.01953125 C-25.53053179 286.48547976 -27.29376394 285.95875775 -29.05859375 285.4375 C-30.93183422 284.87929948 -32.79970499 284.30257374 -34.66015625 283.703125 C-44.99905967 280.54276151 -54.54232922 280.98677461 -64.96875 283.5703125 C-64.96875 282.9103125 -64.96875 282.2503125 -64.96875 281.5703125 C-59.71690169 278.85060534 -54.53807457 276.55935699 -48.96875 274.5703125 C-49.3296875 273.94382812 -49.690625 273.31734375 -50.0625 272.671875 C-50.5265625 271.85460937 -50.990625 271.03734375 -51.46875 270.1953125 C-51.9328125 269.38320313 -52.396875 268.57109375 -52.875 267.734375 C-53.96875 265.5703125 -53.96875 265.5703125 -53.96875 263.5703125 C-55.020625 263.6734375 -56.0725 263.7765625 -57.15625 263.8828125 C-61.91858425 263.49245723 -62.85333906 262.02252462 -65.96875 258.5703125 C-71.13860262 256.41578279 -77.13697506 258.66256436 -82.38598633 259.72875977 C-84.39223674 260.13000985 -86.40296453 260.49596834 -88.41601562 260.86132812 C-96.25207334 262.17702579 -96.25207334 262.17702579 -102.37890625 266.78515625 C-102.90355469 267.70425781 -103.42820312 268.62335938 -103.96875 269.5703125 C-104.46375 268.0853125 -104.46375 268.0853125 -104.96875 266.5703125 C-104.63875 265.9103125 -104.30875 265.2503125 -103.96875 264.5703125 C-104.84015625 264.6425 -105.7115625 264.7146875 -106.609375 264.7890625 C-114.41674618 265.39742909 -122.138813 265.6993774 -129.96875 265.5703125 C-129.96875 264.5803125 -129.96875 263.5903125 -129.96875 262.5703125 C-129.07567139 262.47008789 -128.18259277 262.36986328 -127.26245117 262.26660156 C-123.9450346 261.8856914 -120.6303401 261.48883691 -117.31616211 261.08105469 C-115.88235238 260.90796677 -114.44775946 260.7412417 -113.01245117 260.58105469 C-110.9473077 260.34944981 -108.88607787 260.0949782 -106.82421875 259.8359375 C-105.58309326 259.68930664 -104.34196777 259.54267578 -103.06323242 259.39160156 C-99.87481051 258.84029183 -99.87481051 258.84029183 -98.0402832 256.49121094 C-97.50987427 255.54036621 -97.50987427 255.54036621 -96.96875 254.5703125 C-97.58395508 254.69672119 -98.19916016 254.82312988 -98.83300781 254.95336914 C-101.62651908 255.52213478 -104.42251554 256.07759688 -107.21875 256.6328125 C-108.67087891 256.93155273 -108.67087891 256.93155273 -110.15234375 257.23632812 C-111.08691406 257.42001953 -112.02148438 257.60371094 -112.984375 257.79296875 C-113.84321289 257.96578369 -114.70205078 258.13859863 -115.58691406 258.31665039 C-118.02084351 258.57586038 -119.65773463 258.32115859 -121.96875 257.5703125 C-121.96875 256.9103125 -121.96875 256.2503125 -121.96875 255.5703125 C-121.11643799 255.3844458 -120.26412598 255.1985791 -119.38598633 255.00708008 C-116.20490742 254.30414504 -113.02812255 253.58475479 -109.85327148 252.85424805 C-108.48235579 252.54233121 -107.10995033 252.23688476 -105.73608398 251.93823242 C-103.75330778 251.50600591 -101.77718093 251.0502434 -99.80078125 250.58984375 C-98.61202393 250.32276611 -97.4232666 250.05568848 -96.19848633 249.78051758 C-92.45811927 248.37897555 -90.57308355 246.55252132 -87.96875 243.5703125 C-88.55140625 243.63089844 -89.1340625 243.69148437 -89.734375 243.75390625 C-105.4016824 245.35512477 -120.45027281 246.63015422 -136.09375 244.0703125 C-140.78507334 243.46498046 -145.43245497 243.29530282 -150.15625 243.1328125 C-183.23818167 241.8323751 -183.23818167 241.8323751 -193.6640625 233.16015625 C-194.96875 231.6953125 -194.96875 231.6953125 -196.96875 228.5703125 C-197.35675781 228.03535156 -197.74476563 227.50039063 -198.14453125 226.94921875 C-201.238164 222.34597826 -201.94372227 218.03214698 -200.96875 212.5703125 C-198.56976035 207.58779554 -196.06952002 205.57061447 -190.96875 203.5703125 C-188.64606451 202.82724008 -186.33103091 202.18450554 -183.96875 201.5703125 C-184.79375 200.8484375 -185.61875 200.1265625 -186.46875 199.3828125 C-188.96875 196.5703125 -188.96875 196.5703125 -189.125 193.89453125 C-189.0734375 193.12753906 -189.021875 192.36054688 -188.96875 191.5703125 C-180.12957255 186.42394696 -174.23025166 183.84313765 -163.96875 185.5703125 C-159.81588305 186.67150066 -155.77536212 188.03409706 -151.71875 189.4453125 C-150.66945312 189.79722656 -149.62015625 190.14914063 -148.5390625 190.51171875 C-144.46059025 191.90046436 -140.57033865 193.25786512 -136.7421875 195.24609375 C-133.19714453 196.93872694 -129.69399393 197.38341559 -125.84375 197.8828125 C-114.70247151 199.52202392 -103.52459847 202.41773551 -93.11328125 206.76171875 C-86.05264309 209.42392658 -76.683432 204.77100858 -69.96875 202.5703125 C-73.6197454 201.8585218 -77.21983216 201.45177229 -80.92578125 201.2109375 C-106.63359175 199.5382904 -133.73386787 195.49261255 -155.96875 181.5703125 C-152.20250329 180.31489693 -150.59686066 181.19969292 -146.96875 182.5703125 C-147.814375 181.8690625 -148.66 181.1678125 -149.53125 180.4453125 C-151.96875 177.5703125 -151.96875 177.5703125 -152.03125 174.5078125 C-150.79053716 171.0776064 -149.89578279 169.74682406 -146.96875 167.5703125 C-144.33322094 166.39616667 -141.71332763 165.48517171 -138.96875 164.5703125 C-140.94875 164.5703125 -142.92875 164.5703125 -144.96875 164.5703125 C-144.96875 163.9103125 -144.96875 163.2503125 -144.96875 162.5703125 C-143.31875 162.2403125 -141.66875 161.9103125 -139.96875 161.5703125 C-139.845 160.4565625 -139.72125 159.3428125 -139.59375 158.1953125 C-138.96875 154.5703125 -138.96875 154.5703125 -136.96875 152.5703125 C-139.93875 152.5703125 -142.90875 152.5703125 -145.96875 152.5703125 C-141.94855794 148.55012044 -139.71605804 148.68489008 -134.15625 148.3203125 C-123.63864788 148.44342824 -112.90081671 151.31135311 -102.96875 154.5703125 C-102.63875 151.6003125 -102.30875 148.6303125 -101.96875 145.5703125 C-102.690625 145.5084375 -103.4125 145.4465625 -104.15625 145.3828125 C-107.9494006 144.28701344 -109.51757071 142.63428661 -111.96875 139.5703125 C-113.03125 136.5703125 -113.03125 136.5703125 -112.96875 133.5703125 C-109.76728327 127.90479554 -105.03281861 126.7526473 -99.15625 124.9453125 C-98.20919189 124.64536377 -97.26213379 124.34541504 -96.28637695 124.03637695 C-83.40565525 120.04779711 -70.9819255 118.17709652 -57.5300293 117.39135742 C-48.39333515 116.84399363 -48.39333515 116.84399363 -39.96875 113.5703125 C-38.56410686 110.80338246 -38.32960285 108.7148873 -37.96875 105.5703125 C-38.95875 105.9003125 -39.94875 106.2303125 -40.96875 106.5703125 C-50.82502968 107.41355662 -58.61183365 106.51628995 -66.66796875 100.58203125 C-72.80918788 95.39113216 -77.15332423 90.81961591 -78.40625 82.75390625 C-78.95651527 73.777704 -75.67627664 68.33588329 -70.3125 61.44140625 C-68.8267534 59.59698484 -68.8267534 59.59698484 -68.28125 57.1328125 C-69.14426157 53.916133 -70.05706776 53.62945984 -72.84375 51.9453125 C-73.92269531 51.36910156 -73.92269531 51.36910156 -75.0234375 50.78125 C-79.20578742 48.17777917 -79.74789182 44.0467925 -80.96875 39.5703125 C-81.29875 38.9103125 -81.62875 38.2503125 -81.96875 37.5703125 C-82.41687201 32.28247277 -82.22669195 28.60826206 -79.2890625 24.109375 C-75.12681704 19.25752674 -70.15296403 18.12229002 -64.08203125 17.55078125 C-61.88740748 17.57106428 -60.06713049 17.94979818 -57.96875 18.5703125 C-58.95875 16.86875 -58.95875 16.86875 -59.96875 15.1328125 C-62.23365395 10.56255988 -62.89395878 6.60756028 -61.96875 1.5703125 C-59.30068428 -3.66700169 -55.81758938 -7.24231517 -50.36328125 -9.515625 C-33.07655444 -14.17050886 -15.02880934 -8.57402843 0 0 Z M-56.84375 0.5078125 C-58.3340321 3.23999635 -59.20384571 5.38523819 -58.5859375 8.5 C-56.72107012 13.38791554 -54.4268103 16.65724426 -50.96875 20.5703125 C-50.63875 21.5603125 -50.30875 22.5503125 -49.96875 23.5703125 C-51.12890625 23.71726562 -51.12890625 23.71726562 -52.3125 23.8671875 C-60.13135848 24.98969689 -66.05843148 26.66263975 -72.40625 31.3828125 C-74.5239528 34.34759641 -74.69320193 36.98818754 -74.96875 40.5703125 C-74.30488281 41.00601563 -73.64101562 41.44171875 -72.95703125 41.890625 C-61.19138401 49.82599584 -61.19138401 49.82599584 -58.96875 56.6328125 C-58.96875 60.31094306 -59.6106866 61.75584973 -61.96875 64.5703125 C-62.938125 65.0034375 -63.9075 65.4365625 -64.90625 65.8828125 C-69.12663032 68.20832819 -70.55435197 71.04076788 -71.96875 75.5703125 C-72.22042766 81.48473751 -68.61430949 86.17577014 -64.96875 90.5703125 C-58.29324762 97.07047335 -51.2848879 100.69910428 -41.90625 100.7578125 C-40.606875 100.6959375 -39.3075 100.6340625 -37.96875 100.5703125 C-40.2128052 95.56606941 -43.58197441 91.83690652 -47.96875 88.5703125 C-50.67177784 87.6835638 -53.14086558 87.22367419 -55.96484375 86.921875 C-56.95677734 86.74785156 -56.95677734 86.74785156 -57.96875 86.5703125 C-58.46375 85.5803125 -58.46375 85.5803125 -58.96875 84.5703125 C-56.65875 84.5703125 -54.34875 84.5703125 -51.96875 84.5703125 C-52.0925 83.5596875 -52.21625 82.5490625 -52.34375 81.5078125 C-51.8533483 76.35859463 -49.69943454 73.99171749 -45.96875 70.5703125 C-41.97651163 68.57419332 -36.94603537 69.40435838 -32.65625 70.1328125 C-29.87907625 70.79850423 -29.87907625 70.79850423 -26.96875 69.5703125 C-12.63600528 68.07065997 -1.07866465 74.08013115 9.84765625 82.82421875 C16.66909633 88.7348685 21.90116488 95.19819018 27.03125 102.5703125 C26.70125 103.2303125 26.37125 103.8903125 26.03125 104.5703125 C25.58136719 103.97605469 25.13148438 103.38179688 24.66796875 102.76953125 C13.43282135 88.29217699 0.52982179 75.57774005 -17.96875 71.5703125 C-20.30175933 71.53142901 -22.63584801 71.525449 -24.96875 71.5703125 C-24.96875 72.2303125 -24.96875 72.8903125 -24.96875 73.5703125 C-24.31390625 73.86164063 -23.6590625 74.15296875 -22.984375 74.453125 C-19.97040181 75.80685872 -16.97017399 77.1889962 -13.96875 78.5703125 C-13.00839844 78.993125 -12.04804688 79.4159375 -11.05859375 79.8515625 C4.39580937 87.00676394 16.33000121 98.46787228 26.11328125 112.19140625 C26.74621094 112.97644531 27.37914062 113.76148438 28.03125 114.5703125 C28.69125 114.5703125 29.35125 114.5703125 30.03125 114.5703125 C30.31097656 113.61511719 30.59070313 112.65992188 30.87890625 111.67578125 C34.46376945 99.91700263 38.83619275 88.95103443 50.03125 82.5703125 C55.92143157 79.81320623 61.86414655 79.62918357 68.0546875 81.46875 C70.74270217 82.44306894 73.39417955 83.46619328 76.03125 84.5703125 C74.86419442 87.03467539 73.78023176 88.87624098 72.03125 91.0078125 C68.19544511 95.92243752 67.38263867 100.4091749 68.03125 106.5703125 C68.91438881 109.65820322 70.13216071 112.56274499 71.40625 115.5078125 C75.52761373 125.21647219 77.35804515 133.55408969 77.15625 144.1328125 C77.14722656 145.04611328 77.13820313 145.95941406 77.12890625 146.90039062 C77.10562253 149.12398569 77.0729271 151.34699927 77.03125 153.5703125 C81.54914321 146.79347269 81.02635717 137.38207286 79.68261719 129.53417969 C78.10485361 122.35902868 75.80566266 115.36762351 73.03125 108.5703125 C74.000625 108.4053125 74.97 108.2403125 75.96875 108.0703125 C81.40773537 106.57682061 85.09258533 102.41073383 89.03125 98.5703125 C88.70125 97.9103125 88.37125 97.2503125 88.03125 96.5703125 C86.38125 97.5603125 84.73125 98.5503125 83.03125 99.5703125 C82.70125 99.2403125 82.37125 98.9103125 82.03125 98.5703125 C82.45535156 98.22742188 82.87945312 97.88453125 83.31640625 97.53125 C87.6833656 93.63457858 90.42619619 89.49313848 93.03125 84.3203125 C93.50316772 83.39871338 93.50316772 83.39871338 93.98461914 82.45849609 C95.88125939 78.65915267 95.88125939 78.65915267 95.03125 74.5703125 C93.1659255 73.55276382 93.1659255 73.55276382 90.96875 72.8828125 C89.669375 72.4496875 88.37 72.0165625 87.03125 71.5703125 C90.33125 72.2303125 93.63125 72.8903125 97.03125 73.5703125 C96.70125 71.9203125 96.37125 70.2703125 96.03125 68.5703125 C93.72125 67.9103125 91.41125 67.2503125 89.03125 66.5703125 C89.03125 65.9103125 89.03125 65.2503125 89.03125 64.5703125 C92.00125 65.5603125 94.97125 66.5503125 98.03125 67.5703125 C98.43655987 56.42429097 95.38957913 48.46693671 90.05029297 38.79296875 C89.33735052 37.5011527 88.62746963 36.20764303 87.92041016 34.91259766 C87.22201953 33.6364907 86.51513603 32.36498114 85.79833984 31.09912109 C81.40310859 23.08960275 80.29722685 15.58448048 82.03125 6.5703125 C83.59375 3.0078125 83.59375 3.0078125 85.03125 0.5703125 C85.03125 -0.0896875 85.03125 -0.7496875 85.03125 -1.4296875 C77.29838434 -0.86729727 70.92396829 0.86624975 65.15625 6.2578125 C60.05604072 14.20813873 59.00732405 23.48349997 57.61376953 32.64648438 C57.27953166 34.83154606 56.92762613 37.01327856 56.57421875 39.1953125 C56.35571063 40.59618921 56.13822606 41.99722604 55.921875 43.3984375 C55.72625977 44.6555957 55.53064453 45.91275391 55.32910156 47.20800781 C55.05009194 50.35761475 55.09556608 52.56838222 56.03125 55.5703125 C57.98934523 57.86320722 57.98934523 57.86320722 60.03125 59.5703125 C53.33680667 55.48367384 47.90364551 50.8288593 42.46875 45.1953125 C41.74623047 44.45925781 41.02371094 43.72320312 40.27929688 42.96484375 C38.52277886 41.17342803 36.77373554 39.37536196 35.03125 37.5703125 C34.53625 38.5603125 34.53625 38.5603125 34.03125 39.5703125 C35.27586313 42.1360398 36.56767171 44.59237238 37.96875 47.0703125 C42.03125 54.32719898 42.03125 54.32719898 42.03125 56.5703125 C41.54881836 55.74793091 41.54881836 55.74793091 41.05664062 54.90893555 C37.43896307 48.76056094 33.76153911 42.65101171 30.03125 36.5703125 C29.65371582 35.94930664 29.27618164 35.32830078 28.88720703 34.68847656 C23.80584524 26.47602078 17.19723907 21.44731676 9.03125 16.5703125 C8.4655127 16.22371582 7.89977539 15.87711914 7.31689453 15.52001953 C-5.67178115 7.66631589 -23.59941103 -0.4296875 -38.96875 -0.4296875 C-38.96875 -1.0896875 -38.96875 -1.7496875 -38.96875 -2.4296875 C-38.2574292 -2.27298584 -37.5461084 -2.11628418 -36.81323242 -1.95483398 C-33.59595245 -1.25083227 -30.37619776 -0.55887998 -27.15625 0.1328125 C-25.47692383 0.5030957 -25.47692383 0.5030957 -23.76367188 0.88085938 C-22.69052734 1.10966797 -21.61738281 1.33847656 -20.51171875 1.57421875 C-19.52196045 1.78892822 -18.53220215 2.0036377 -17.51245117 2.22485352 C-14.8523846 2.77653486 -14.8523846 2.77653486 -11.96875 1.5703125 C-14.19638988 0.75341073 -16.4256986 -0.05830622 -18.65625 -0.8671875 C-19.28208984 -1.09728516 -19.90792969 -1.32738281 -20.55273438 -1.56445312 C-26.94955957 -3.87534809 -32.56026583 -4.63225055 -39.34375 -4.6796875 C-40.07335937 -4.7003125 -40.80296875 -4.7209375 -41.5546875 -4.7421875 C-47.42320159 -4.78410546 -52.58390466 -3.89402769 -56.84375 0.5078125 Z M55.03125 13.5703125 C56.03125 15.5703125 56.03125 15.5703125 56.03125 15.5703125 Z M-76.28125 25.3203125 C-78.52651705 28.3140019 -78.68587634 30.8929549 -78.96875 34.5703125 C-78.55625 33.9928125 -78.14375 33.4153125 -77.71875 32.8203125 C-72.65735971 26.3128107 -66.24919551 22.63875708 -57.96875 21.5703125 C-57.96875 21.2403125 -57.96875 20.9103125 -57.96875 20.5703125 C-65.45107478 20.17105802 -70.14812945 20.67903208 -76.28125 25.3203125 Z M-72.96875 45.5703125 C-72.63875 46.2303125 -72.30875 46.8903125 -71.96875 47.5703125 C-71.30875 47.2403125 -70.64875 46.9103125 -69.96875 46.5703125 C-70.95875 46.2403125 -71.94875 45.9103125 -72.96875 45.5703125 Z M-61.96875 54.5703125 C-62.29875 57.2103125 -62.62875 59.8503125 -62.96875 62.5703125 C-62.30875 62.2403125 -61.64875 61.9103125 -60.96875 61.5703125 C-60.96875 59.2603125 -60.96875 56.9503125 -60.96875 54.5703125 C-61.29875 54.5703125 -61.62875 54.5703125 -61.96875 54.5703125 Z M-38.96875 71.5703125 C-34.96875 72.5703125 -34.96875 72.5703125 -34.96875 72.5703125 Z M103.03125 73.5703125 C103.03125 74.2303125 103.03125 74.8903125 103.03125 75.5703125 C104.99591413 76.63806474 106.99980359 77.63584715 109.03125 78.5703125 C109.69125 78.2403125 110.35125 77.9103125 111.03125 77.5703125 C107.36144796 74.65859461 107.36144796 74.65859461 103.03125 73.5703125 Z M-43.96875 76.5703125 C-44.29875 77.2303125 -44.62875 77.8903125 -44.96875 78.5703125 C-44.31489293 80.55720904 -44.31489293 80.55720904 -43.21875 82.6328125 C-42.87328125 83.34566406 -42.5278125 84.05851562 -42.171875 84.79296875 C-41.01266012 86.89364633 -41.01266012 86.89364633 -37.96875 87.5703125 C-37.63875 83.9403125 -37.30875 80.3103125 -36.96875 76.5703125 C-39.27875 76.5703125 -41.58875 76.5703125 -43.96875 76.5703125 Z M-33.96875 77.5703125 C-34.88567961 80.32110134 -35.07761083 81.92980163 -35.03125 84.7578125 C-35.010625 86.0159375 -34.99 87.2740625 -34.96875 88.5703125 C-34.02515625 88.910625 -33.0815625 89.2509375 -32.109375 89.6015625 C-16.85406187 95.28534535 -0.71837985 104.38987792 8.03125 118.5703125 C4.81817504 116.91509206 2.46708925 115.06338412 0.03125 112.4453125 C-6.42080176 105.78055573 -14.62818502 100.53364864 -22.96875 96.5703125 C-26.15878917 97.85994334 -26.15878917 97.85994334 -28.96875 100.5703125 C-29.25685364 102.96915642 -29.25685364 102.96915642 -29.03125 105.5703125 C-28.76649625 110.32891286 -28.76649625 110.32891286 -30.90625 112.8828125 C-32.65738481 113.84772352 -34.40941126 114.8110296 -36.1640625 115.76953125 C-36.94523437 116.19878906 -37.72640625 116.62804687 -38.53125 117.0703125 C-39.69140625 117.70453125 -39.69140625 117.70453125 -40.875 118.3515625 C-43.40064875 119.82171625 -45.25499584 121.18595889 -46.96875 123.5703125 C-47.41202803 125.98287773 -47.41202803 125.98287773 -46.96875 128.5703125 C-45.31587684 130.7525632 -45.31587684 130.7525632 -43.09375 132.6328125 C-38.14575084 137.11084041 -38.14575084 137.11084041 -36.96875 140.5703125 C-37.20945454 149.56133487 -41.09461872 156.5784635 -46.21875 163.6953125 C-48.39491032 167.27043302 -49.04000569 169.36622696 -48.96875 173.5703125 C-47.58175704 176.762436 -45.87441418 179.66236128 -43.96875 182.5703125 C-50.40585458 180.58966494 -50.40585458 180.58966494 -52.04296875 177.625 C-52.90625 175.4453125 -52.90625 175.4453125 -53.55859375 173.3125 C-54.99533613 171.17527321 -54.99533613 171.17527321 -58.5859375 170.70703125 C-63.07471063 170.35266775 -66.86911458 171.27792931 -71.15625 172.5078125 C-79.75190515 174.74843092 -89.7395224 177.01352393 -97.96875 172.5703125 C-99.078125 170.80078125 -99.078125 170.80078125 -99.71875 168.7578125 C-99.94046875 168.09136719 -100.1621875 167.42492187 -100.390625 166.73828125 C-101.02358049 164.36469816 -101.51384097 161.98385761 -101.96875 159.5703125 C-117.26592168 155.58297047 -117.26592168 155.58297047 -132.96875 155.5703125 C-134.45375 156.5603125 -134.45375 156.5603125 -135.96875 157.5703125 C-135.96875 158.5603125 -135.96875 159.5503125 -135.96875 160.5703125 C-135.04835938 160.66828125 -134.12796875 160.76625 -133.1796875 160.8671875 C-114.30378308 163.09692774 -114.30378308 163.09692774 -106.96875 166.5703125 C-105.58203125 169.20703125 -105.58203125 169.20703125 -104.96875 171.5703125 C-114.92422117 174.22510481 -123.47799198 171.88475675 -132.96875 168.5703125 C-136.8108931 167.28959813 -138.44322977 168.0923955 -142.09375 169.53515625 C-144.74185558 170.99713121 -145.78780848 172.83938523 -146.96875 175.5703125 C-138.7480137 184.989695 -122.20006545 187.36679563 -110.46875 190.1953125 C-109.68759827 190.38696991 -108.90644653 190.57862732 -108.10162354 190.77609253 C-98.39930379 193.15473773 -88.68316484 195.38812924 -78.84375 197.1328125 C-77.97041016 197.2889502 -77.09707031 197.44508789 -76.19726562 197.60595703 C-66.57362117 199.17650859 -59.12966052 199.57777712 -50.53125 194.5703125 C-49.80115723 194.16312988 -49.07106445 193.75594727 -48.31884766 193.33642578 C-42.19985814 189.85779441 -36.41546202 186.0384627 -30.96875 181.5703125 C-30.27007812 181.00828125 -29.57140625 180.44625 -28.8515625 179.8671875 C-20.3393976 172.30866763 -20.09129392 160.06121962 -18.59570312 149.40429688 C-17.45336678 141.92414468 -16.0360048 134.6375673 -10.53125 129.1328125 C-4.70074016 125.57762357 0.2406201 124.73965441 7.03125 125.5703125 C12.99823868 127.45237345 17.53061942 131.35097133 22.03125 135.5703125 C21.37125 136.4778125 20.71125 137.3853125 20.03125 138.3203125 C16.71357598 144.19202224 17.18349206 151.1205196 18.75683594 157.52294922 C19.7256599 160.43090856 20.78402733 163.28065834 21.90625 166.1328125 C24.76284729 173.57712521 26.87749731 180.6645063 28.03125 188.5703125 C45.43053372 183.29396409 60.61721792 174.73224727 70.03125 158.5703125 C75.39254712 144.42788753 73.67829292 128.99274676 67.90625 115.2578125 C64.9412926 108.19893315 64.17657228 101.82720376 67.03125 94.5703125 C68.3017464 92.52981828 69.62556196 90.52013785 71.03125 88.5703125 C71.36125 87.5803125 71.69125 86.5903125 72.03125 85.5703125 C65.79323697 83.53341028 60.81656703 82.60985835 54.40625 84.8203125 C43.98977671 90.2214468 40.28184075 99.13720804 36.65625 109.8203125 C36.39336182 110.58875488 36.13047363 111.35719727 35.85961914 112.14892578 C34.01991974 117.84290974 33.01001546 122.27253479 35.53125 127.9453125 C36.02625 128.8115625 36.52125 129.6778125 37.03125 130.5703125 C36.70125 130.9003125 36.37125 131.2303125 36.03125 131.5703125 C35.65355469 130.92707031 35.27585937 130.28382813 34.88671875 129.62109375 C19.44249261 104.26652109 -2.22445407 85.37187891 -30.96875 77.5703125 C-31.95875 77.5703125 -32.94875 77.5703125 -33.96875 77.5703125 Z M-47.96875 78.5703125 C-47.63875 80.2203125 -47.30875 81.8703125 -46.96875 83.5703125 C-46.63875 82.9103125 -46.30875 82.2503125 -45.96875 81.5703125 C-46.62875 80.5803125 -47.28875 79.5903125 -47.96875 78.5703125 Z M102.03125 78.5703125 C101.81210937 79.32054688 101.59296875 80.07078125 101.3671875 80.84375 C98.28208222 90.80136624 94.33037796 100.91240934 85.03125 106.5703125 C82.08247362 107.80917542 79.12633422 108.7702227 76.03125 109.5703125 C76.38058594 110.52292969 76.72992188 111.47554687 77.08984375 112.45703125 C77.54966666 113.72389029 78.00929162 114.9908212 78.46875 116.2578125 C78.81389648 117.19657227 78.81389648 117.19657227 79.16601562 118.15429688 C83.64570758 130.5546036 83.56603524 143.58712881 78.7109375 155.8359375 C77.85817966 159.26657247 78.4218868 160.46722896 80.03125 163.5703125 C80.505625 164.5396875 80.98 165.5090625 81.46875 166.5078125 C81.984375 167.5184375 82.5 168.5290625 83.03125 169.5703125 C84.87693141 173.18784807 86.58048176 176.77599556 88.03125 180.5703125 C94.08662521 180.26754374 97.54608458 177.29277212 102.03125 173.5703125 C101.7425 172.7040625 101.45375 171.8378125 101.15625 170.9453125 C100.785 169.8315625 100.41375 168.7178125 100.03125 167.5703125 C99.66 166.6215625 99.28875 165.6728125 98.90625 164.6953125 C97.66862122 160.27520973 96.90485139 155.75685098 99.09375 151.5078125 C102.31165235 149.95076298 104.66677061 150.66911266 108.03125 151.5703125 C110.73810928 154.38943783 111.44367089 156.38474996 111.40625 160.2578125 C111.26836391 165.41322038 109.95954213 169.81844976 108.03125 174.5703125 C110.76834522 176.79565945 110.76834522 176.79565945 113.46875 176.5703125 C117.06058771 175.16861973 118.52277007 172.99391667 120.03125 169.5703125 C120.90834622 165.55842976 121.32014436 161.52918629 121.71875 157.4453125 C121.94996494 155.29667425 122.18296492 153.14822715 122.41796875 151 C122.56045044 149.58050049 122.56045044 149.58050049 122.70581055 148.13232422 C122.99308628 145.87075513 123.42148171 143.76367259 124.03125 141.5703125 C129.57382717 140.40345415 132.64087911 140.20621227 137.44140625 143.30859375 C139.03125 144.5703125 139.03125 144.5703125 141.65625 147.3828125 C143.81490134 149.86670814 143.81490134 149.86670814 146.65625 149.5703125 C149.17528109 148.50966783 150.29282479 147.64676484 152.03125 145.5703125 C154.91796285 132.78629845 149.67847668 120.38378002 143.03125 109.5703125 C133.43336015 95.0009998 121.23735498 85.17174324 105.03125 78.5703125 C104.04125 78.5703125 103.05125 78.5703125 102.03125 78.5703125 Z M-34.96875 91.5703125 C-34.47043276 95.25786007 -33.86807357 97.17521912 -30.96875 99.5703125 C-28.98875 98.5803125 -27.00875 97.5903125 -24.96875 96.5703125 C-25.79076984 94.37913477 -25.79076984 94.37913477 -28.03515625 93.71875 C-28.85886719 93.46351563 -29.68257812 93.20828125 -30.53125 92.9453125 C-31.35753906 92.68492187 -32.18382812 92.42453125 -33.03515625 92.15625 C-33.67324219 91.96289062 -34.31132812 91.76953125 -34.96875 91.5703125 Z M90.03125 93.5703125 C91.03125 95.5703125 91.03125 95.5703125 91.03125 95.5703125 Z M-33.96875 103.5703125 C-34.29875 105.8803125 -34.62875 108.1903125 -34.96875 110.5703125 C-33.97875 109.9103125 -32.98875 109.2503125 -31.96875 108.5703125 C-32.29875 106.9203125 -32.62875 105.2703125 -32.96875 103.5703125 C-33.29875 103.5703125 -33.62875 103.5703125 -33.96875 103.5703125 Z M-66.78125 120.5703125 C-67.94269531 120.7559375 -69.10414063 120.9415625 -70.30078125 121.1328125 C-71.62142578 121.349375 -71.62142578 121.349375 -72.96875 121.5703125 C-72.96875 121.9003125 -72.96875 122.2303125 -72.96875 122.5703125 C-70.34313891 122.65105453 -67.71999324 122.7106748 -65.09375 122.7578125 C-64.34738281 122.78294922 -63.60101563 122.80808594 -62.83203125 122.83398438 C-60.40653172 122.9001889 -60.40653172 122.9001889 -56.96875 122.5703125 C-56.30875 121.5803125 -55.64875 120.5903125 -54.96875 119.5703125 C-59.01361983 119.44843318 -62.79015352 119.92528681 -66.78125 120.5703125 Z M-51.96875 124.5703125 C-53.27734649 126.26743457 -53.27734649 126.26743457 -53.96875 128.5703125 C-51.94135064 132.73774451 -49.07865819 135.67105127 -45.78125 138.8828125 C-44.42966797 140.20732422 -44.42966797 140.20732422 -43.05078125 141.55859375 C-42.02017578 142.55439453 -42.02017578 142.55439453 -40.96875 143.5703125 C-40.12732213 141.77774153 -40.12732213 141.77774153 -39.96875 139.5703125 C-41.51607408 137.56633744 -41.51607408 137.56633744 -43.71875 135.7578125 C-47.5156567 132.21978581 -49.33713285 129.46516395 -50.96875 124.5703125 C-51.29875 124.5703125 -51.62875 124.5703125 -51.96875 124.5703125 Z M-108.96875 134.5703125 C-107.70757275 138.45894237 -106.51610833 140.46406849 -102.96875 142.5703125 C-102.30875 142.5703125 -101.64875 142.5703125 -100.96875 142.5703125 C-100.63875 141.2503125 -100.30875 139.9303125 -99.96875 138.5703125 C-99.63875 139.8903125 -99.30875 141.2103125 -98.96875 142.5703125 C-97.31875 142.5703125 -95.66875 142.5703125 -93.96875 142.5703125 C-93.96875 141.5803125 -93.96875 140.5903125 -93.96875 139.5703125 C-93.30875 139.5703125 -92.64875 139.5703125 -91.96875 139.5703125 C-92.29875 140.6840625 -92.62875 141.7978125 -92.96875 142.9453125 C-94.21304211 147.83485473 -94.15370088 152.55608865 -93.96875 157.5703125 C-87.69432523 159.95740225 -81.39218788 162.23637692 -75.03125 164.3828125 C-74.09345703 164.71990234 -73.15566406 165.05699219 -72.18945312 165.40429688 C-65.62542373 167.58926566 -61.58484346 167.65353372 -54.96875 165.5703125 C-55.0925 164.5596875 -55.21625 163.5490625 -55.34375 162.5078125 C-54.8469215 157.29111326 -52.7657168 155.01159154 -48.96875 151.5703125 C-46.09375 149.6328125 -46.09375 149.6328125 -43.96875 148.5703125 C-45.4075602 145.1831135 -47.18994499 143.2109021 -49.96875 140.8203125 C-50.67 140.20671875 -51.37125 139.593125 -52.09375 138.9609375 C-53.8474157 137.37174328 -53.8474157 137.37174328 -55.96875 137.5703125 C-56.47434908 136.13477225 -56.9730249 134.6967923 -57.46875 133.2578125 C-57.7471875 132.45730469 -58.025625 131.65679687 -58.3125 130.83203125 C-58.96875 128.5703125 -58.96875 128.5703125 -58.96875 125.5703125 C-85.45411933 124.93038883 -85.45411933 124.93038883 -108.96875 134.5703125 Z M-4.65625 131.1953125 C-5.21699219 131.49695313 -5.77773437 131.79859375 -6.35546875 132.109375 C-10.43885523 135.80716324 -11.48282522 141.14855942 -12.3984375 146.3671875 C-12.63691406 147.65625 -12.87539062 148.9453125 -13.12109375 150.2734375 C-13.48384068 152.29075957 -13.84173918 154.30874817 -14.19287109 156.328125 C-16.41730107 168.98596923 -19.17946543 178.91622588 -29.96875 186.5703125 C-45.43101095 197.04132163 -62.92824439 205.65226384 -80.96875 210.5703125 C-80.96875 211.5603125 -80.96875 212.5503125 -80.96875 213.5703125 C-81.62875 213.2403125 -82.28875 212.9103125 -82.96875 212.5703125 C-84.47141423 212.46502452 -85.97816639 212.41504899 -87.484375 212.39453125 C-100.03531165 212.11028815 -111.52475621 211.52727379 -122.87109375 205.5625 C-136.33638477 198.62995223 -148.96846489 198.32982697 -163.96875 198.5703125 C-163.96875 197.9103125 -163.96875 197.2503125 -163.96875 196.5703125 C-158.02875 196.5703125 -152.08875 196.5703125 -145.96875 196.5703125 C-152.73363189 192.06039124 -164.78435946 187.51286027 -172.96875 188.5703125 C-176.80764162 189.9402699 -180.38516942 191.63450916 -183.96875 193.5703125 C-183.28084592 196.70287498 -183.28084592 196.70287498 -180.765625 197.9296875 C-164.40624521 205.95250032 -164.40624521 205.95250032 -146.96875 209.5703125 C-147.29875 210.2303125 -147.62875 210.8903125 -147.96875 211.5703125 C-148.88575684 211.55460205 -149.80276367 211.5388916 -150.74755859 211.52270508 C-154.19553441 211.47114859 -157.6430923 211.43375696 -161.09130859 211.40551758 C-162.57509889 211.39056066 -164.05884599 211.37018755 -165.54248047 211.34399414 C-179.435711 210.66346782 -179.435711 210.66346782 -191.7097168 216.04736328 C-193.36166058 218.0455842 -193.28187652 219.20340669 -193.15625 221.7578125 C-193.0634375 223.645 -193.0634375 223.645 -192.96875 225.5703125 C-164.64615325 238.65298618 -129.19086882 238.5790037 -98.60836792 238.97671509 C-97.1932905 238.99728196 -95.7783039 239.02577853 -94.36355591 239.06259155 C-92.38865473 239.11022946 -90.41295698 239.12031893 -88.4375 239.12890625 C-87.30763672 239.14236084 -86.17777344 239.15581543 -85.01367188 239.16967773 C-80.98109666 238.3759019 -79.54842529 236.69914487 -76.96875 233.5703125 C-75.77446298 231.77434071 -75.77446298 231.77434071 -75.01171875 229.96875 C-74.7077417 229.31849854 -74.40376465 228.66824707 -74.09057617 227.99829102 C-73.78224854 227.32080811 -73.4739209 226.6433252 -73.15625 225.9453125 C-69.82143499 218.95865433 -66.21260481 212.34901725 -60.96875 206.5703125 C-59.97875 206.2403125 -58.98875 205.9103125 -57.96875 205.5703125 C-58.63003906 206.62992187 -59.29132813 207.68953125 -59.97265625 208.78125 C-60.82594223 210.16901182 -61.67878396 211.55704686 -62.53125 212.9453125 C-62.96888672 213.64398438 -63.40652344 214.34265625 -63.85742188 215.0625 C-64.95625978 216.86217153 -65.96942867 218.71353593 -66.96875 220.5703125 C-66.63875 221.2303125 -66.30875 221.8903125 -65.96875 222.5703125 C-65.10894531 221.82007813 -64.24914062 221.06984375 -63.36328125 220.296875 C-55.44160205 213.42435012 -47.35492695 206.86691048 -38.96875 200.5703125 C-38.63875 200.9003125 -38.30875 201.2303125 -37.96875 201.5703125 C-46.264269 210.03865481 -46.264269 210.03865481 -50.59375 213.7578125 C-62.2475921 223.79306542 -73.17500292 234.62688326 -83.96875 245.5703125 C-81.77145375 246.96141708 -81.77145375 246.96141708 -78.44921875 245.42578125 C-77.01524425 244.87753611 -75.584355 244.32117004 -74.15625 243.7578125 C-73.08793945 243.34692383 -73.08793945 243.34692383 -71.99804688 242.92773438 C-68.3097894 241.50497455 -64.63568236 240.04717131 -60.96875 238.5703125 C-63.86326918 241.78493144 -66.40216146 243.46215754 -70.40625 245.0703125 C-71.45683594 245.493125 -72.50742188 245.9159375 -73.58984375 246.3515625 C-78.04438185 247.95828607 -82.56889523 249.21348677 -87.15625 250.3828125 C-90.54754628 251.81469315 -91.9144646 253.56789538 -93.96875 256.5703125 C-88.8904767 258.22401038 -84.40073603 256.62799472 -79.34375 255.4453125 C-77.89355469 255.14367187 -77.89355469 255.14367187 -76.4140625 254.8359375 C-73.81694711 254.23381298 -71.41512867 253.63129504 -68.96875 252.5703125 C-67.19392612 250.0759167 -67.19392612 250.0759167 -66.96875 247.5703125 C-63.25275809 247.36944807 -62.19666555 247.4183688 -58.96875 249.5703125 C-55.8059015 248.76626787 -55.8059015 248.76626787 -52.96875 247.5703125 C-54.3297811 242.37364829 -56.27262451 239.3565874 -59.96875 235.5703125 C-60.95875 235.5703125 -61.94875 235.5703125 -62.96875 235.5703125 C-62.96875 234.9103125 -62.96875 234.2503125 -62.96875 233.5703125 C-56.00462216 235.65955085 -53.51293664 239.37772265 -49.96875 245.5703125 C-46.37880759 245.01486093 -43.90452498 244.1524836 -40.89453125 242.12890625 C-40.14937256 241.63173096 -39.40421387 241.13455566 -38.63647461 240.62231445 C-37.85925049 240.08952881 -37.08202637 239.55674316 -36.28125 239.0078125 C-35.4776001 238.46278076 -34.6739502 237.91774902 -33.84594727 237.35620117 C-27.99662362 233.35440564 -22.28661435 229.26648408 -16.96875 224.5703125 C-16.16953125 223.86519531 -15.3703125 223.16007812 -14.546875 222.43359375 C-8.20977419 216.5003278 -2.99702803 209.95503793 -2.28125 201.0078125 C-2.60948262 195.56301257 -5.50777907 191.61623626 -8.96875 187.5703125 C-11.61507262 185.1999179 -11.61507262 185.1999179 -13.96875 183.5703125 C-14.29875 182.9103125 -14.62875 182.2503125 -14.96875 181.5703125 C-14.06125 182.1890625 -13.15375 182.8078125 -12.21875 183.4453125 C-9.2088261 185.41333967 -6.33159177 187.00769646 -3.01953125 188.375 C0.83678428 190.62268105 2.38392423 194.55304222 4.03125 198.5703125 C6.06531655 206.46002518 4.65649782 212.90407083 0.71484375 219.91015625 C-0.47004361 221.83095656 -1.68798636 223.71244588 -2.96875 225.5703125 C4.18403427 224.1030747 9.67081304 219.00715243 13.71875 213.11328125 C16.17602614 209.07988148 16.17602614 209.07988148 17.03125 204.5703125 C17.69125 204.5703125 18.35125 204.5703125 19.03125 204.5703125 C18.598125 205.70919922 18.598125 205.70919922 18.15625 206.87109375 C17.599375 208.36189453 17.599375 208.36189453 17.03125 209.8828125 C16.474375 211.36201172 16.474375 211.36201172 15.90625 212.87109375 C14.87706498 215.57302906 14.87706498 215.57302906 15.03125 218.5703125 C22.12125952 208.8824369 23.06424745 198.62595647 21.56640625 186.9453125 C19.90721191 176.33620545 16.58278961 166.48149566 12.18896484 156.6940918 C9.5139496 150.72179841 8.90601588 146.55218291 11.28125 140.2578125 C13.00765044 137.60655468 14.48625538 136.36337689 17.03125 134.5703125 C15.16228445 133.72353199 13.28574819 132.89345039 11.40625 132.0703125 C10.36210937 131.60625 9.31796875 131.1421875 8.2421875 130.6640625 C3.64009525 129.09643983 -0.34848427 128.72512516 -4.65625 131.1953125 Z M16.03125 138.5703125 C13.37008288 141.23147962 13.0360725 142.47386241 12.84375 146.3203125 C12.905625 147.3928125 12.9675 148.4653125 13.03125 149.5703125 C14.99426592 146.06492693 15.99027388 142.43679522 17.03125 138.5703125 C16.70125 138.5703125 16.37125 138.5703125 16.03125 138.5703125 Z M-98.96875 145.5703125 C-98.63875 149.2003125 -98.30875 152.8303125 -97.96875 156.5703125 C-97.63875 156.5703125 -97.30875 156.5703125 -96.96875 156.5703125 C-96.63875 152.9403125 -96.30875 149.3103125 -95.96875 145.5703125 C-96.95875 145.5703125 -97.94875 145.5703125 -98.96875 145.5703125 Z M-46.96875 153.5703125 C-48.94875 155.8803125 -50.92875 158.1903125 -52.96875 160.5703125 C-52.63875 161.2303125 -52.30875 161.8903125 -51.96875 162.5703125 C-49.65875 159.9303125 -47.34875 157.2903125 -44.96875 154.5703125 C-45.62875 154.2403125 -46.28875 153.9103125 -46.96875 153.5703125 Z M76.03125 153.5703125 C77.03125 156.5703125 77.03125 156.5703125 77.03125 156.5703125 Z M102.03125 153.5703125 C100.4199702 159.28303178 101.94135454 163.25701895 104.03125 168.5703125 C104.69125 168.5703125 105.35125 168.5703125 106.03125 168.5703125 C108.28616788 164.06047674 108.35556261 160.51607985 108.03125 155.5703125 C107.37125 154.9103125 106.71125 154.2503125 106.03125 153.5703125 C104.71125 153.5703125 103.39125 153.5703125 102.03125 153.5703125 Z M-96.96875 161.5703125 C-96.40135132 165.70004878 -96.40135132 165.70004878 -94.96875 169.5703125 C-93.07341658 170.03554313 -93.07341658 170.03554313 -90.90625 170.1953125 C-89.606875 170.3190625 -88.3075 170.4428125 -86.96875 170.5703125 C-87.731875 169.8278125 -88.495 169.0853125 -89.28125 168.3203125 C-91.96875 165.5703125 -91.96875 165.5703125 -93.65625 163.2578125 C-94.089375 162.7009375 -94.5225 162.1440625 -94.96875 161.5703125 C-95.62875 161.5703125 -96.28875 161.5703125 -96.96875 161.5703125 Z M-89.96875 163.5703125 C-87.44086993 166.36903687 -85.76463866 168.02804269 -81.96875 168.5703125 C-81.63875 167.5803125 -81.30875 166.5903125 -80.96875 165.5703125 C-85.42375 164.5803125 -85.42375 164.5803125 -89.96875 163.5703125 Z M-127.96875 166.5703125 C-123.44775181 169.58431129 -120.10842935 169.69139597 -114.71875 169.6328125 C-113.10226563 169.61927734 -113.10226563 169.61927734 -111.453125 169.60546875 C-110.22335938 169.58806641 -110.22335938 169.58806641 -108.96875 169.5703125 C-114.72138111 165.73522509 -121.28675851 166.45146285 -127.96875 166.5703125 Z M-77.96875 166.5703125 C-79.45375 168.5503125 -79.45375 168.5503125 -80.96875 170.5703125 C-76.51375 170.0753125 -76.51375 170.0753125 -71.96875 169.5703125 C-74.1072985 167.431764 -75.10150314 167.14376187 -77.96875 166.5703125 Z M0.03125 197.5703125 C0.00998047 198.49650391 0.00998047 198.49650391 -0.01171875 199.44140625 C-0.63676033 210.54011751 -6.17148857 217.95277518 -13.96875 225.5703125 C-16.88393916 228.02830584 -19.87452592 230.34275766 -22.96875 232.5703125 C-16.38790672 232.5703125 -10.21887063 226.01671976 -5.59375 221.6953125 C-0.82120447 216.70056343 1.72922199 211.64093063 2.40625 204.7578125 C2.05369588 201.76110248 1.43727536 200.16302327 0.03125 197.5703125 Z M-119.96875 202.5703125 C-117.40606026 205.13300224 -115.17484823 205.63007674 -111.71875 206.6953125 C-110.04039062 207.22511719 -110.04039062 207.22511719 -108.328125 207.765625 C-105.06601717 208.54701362 -102.30667108 208.72203619 -98.96875 208.5703125 C-102.34401629 206.32013497 -105.59949995 205.44026251 -109.46875 204.4453125 C-110.14550781 204.26355469 -110.82226562 204.08179688 -111.51953125 203.89453125 C-114.42064063 203.13349072 -116.9564954 202.5703125 -119.96875 202.5703125 Z M-195.84375 208.3828125 C-198.14771031 210.75453635 -199.16880029 212.37051366 -199.96875 215.5703125 C-199.68135075 217.81272032 -199.68135075 217.81272032 -198.96875 219.5703125 C-198.741875 219.0134375 -198.515 218.4565625 -198.28125 217.8828125 C-195.13635192 212.3418016 -191.33075475 209.89480803 -185.39453125 208.12890625 C-181.59492155 207.25395587 -177.8542898 206.87868867 -173.96875 206.5703125 C-173.96875 206.2403125 -173.96875 205.9103125 -173.96875 205.5703125 C-182.08172359 204.46670947 -188.65350888 203.8498344 -195.84375 208.3828125 Z M7.03125 223.5703125 C6.70125 224.2303125 6.37125 224.8903125 6.03125 225.5703125 C7.02125 225.2403125 8.01125 224.9103125 9.03125 224.5703125 C8.37125 224.2403125 7.71125 223.9103125 7.03125 223.5703125 Z M4.03125 225.5703125 C3.04125 226.5603125 2.05125 227.5503125 1.03125 228.5703125 C2.68125 227.9103125 4.33125 227.2503125 6.03125 226.5703125 C5.37125 226.2403125 4.71125 225.9103125 4.03125 225.5703125 Z M-182.96875 232.5703125 C-177.18518734 238.35387516 -164.34260466 238.61096256 -156.53125 238.6328125 C-155.01035674 238.61694625 -153.4894767 238.59785081 -151.96875 238.5703125 C-151.96875 238.2403125 -151.96875 237.9103125 -151.96875 237.5703125 C-155.8226892 236.92311697 -159.67694089 236.27780111 -163.53125 235.6328125 C-164.61728516 235.45041016 -165.70332031 235.26800781 -166.82226562 235.08007812 C-172.19726325 234.18152229 -177.56896353 233.30629487 -182.96875 232.5703125 Z M-151.96875 238.5703125 C-151.96875 238.9003125 -151.96875 239.2303125 -151.96875 239.5703125 C-148.66875 239.5703125 -145.36875 239.5703125 -141.96875 239.5703125 C-141.96875 239.2403125 -141.96875 238.9103125 -141.96875 238.5703125 C-145.26875 238.5703125 -148.56875 238.5703125 -151.96875 238.5703125 Z M-37.96875 246.5703125 C-37.96875 247.2303125 -37.96875 247.8903125 -37.96875 248.5703125 C-37.30875 248.5703125 -36.64875 248.5703125 -35.96875 248.5703125 C-35.96875 247.9103125 -35.96875 247.2503125 -35.96875 246.5703125 C-36.62875 246.5703125 -37.28875 246.5703125 -37.96875 246.5703125 Z M-55.96875 253.5703125 C-54.97875 255.2203125 -53.98875 256.8703125 -52.96875 258.5703125 C-50.68146266 256.73147369 -50.68146266 256.73147369 -50.84375 253.9453125 C-50.885 253.1615625 -50.92625 252.3778125 -50.96875 251.5703125 C-52.80921388 251.5703125 -54.36504594 252.74259427 -55.96875 253.5703125 Z M-61.96875 254.5703125 C-62.62875 255.2303125 -63.28875 255.8903125 -63.96875 256.5703125 C-61.66308317 258.69833796 -61.66308317 258.69833796 -58.96875 260.5703125 C-57.97875 260.2403125 -56.98875 259.9103125 -55.96875 259.5703125 C-57.24937485 257.8628127 -58.58642557 256.19657654 -59.96875 254.5703125 C-60.62875 254.5703125 -61.28875 254.5703125 -61.96875 254.5703125 Z " fill="#FBD2D6" transform="translate(258.96875,46.4296875)" />
<path d="M0 0 C4.87634433 2.17651958 8.09466391 5.75313166 11.8125 9.5 C12.53083008 10.22251953 13.24916016 10.94503906 13.98925781 11.68945312 C18.95129506 16.75793298 23.42581833 21.8395316 27 28 C27.41507812 28.70511719 27.83015625 29.41023438 28.2578125 30.13671875 C30.59635171 34.42949178 31.59448966 38.13387591 32 43 C30.68 43 29.36 43 28 43 C27.74347656 42.27296875 27.48695313 41.5459375 27.22265625 40.796875 C22.41208065 28.16304009 14.0534415 18.82394716 5 9 C0 3.48717949 0 3.48717949 0 0 Z " fill="#FBD5D8" transform="translate(260,84)" />
<path d="M0 0 C14.42040521 2.27822374 27.31042852 18.37738774 35.609375 29.5078125 C39.04523404 34.35221091 41.6363369 39.55459893 44 45 C43.34 45 42.68 45 42 45 C40.91142134 43.44101062 39.90566332 41.82399356 38.9375 40.1875 C29.73276525 25.36503023 17.52775736 12.01835146 2.2109375 3.4375 C1.48132813 2.963125 0.75171875 2.48875 0 2 C0 1.34 0 0.68 0 0 Z " fill="#FCDFE2" transform="translate(239,75)" />
<path d="M0 0 C1.95490358 1.95490358 2.76698301 3.35394423 3.9375 5.8125 C4.29328125 6.52792969 4.6490625 7.24335938 5.015625 7.98046875 C5.76445939 9.51676788 6.48307051 11.06784007 7.1875 12.625 C10.03072718 16.35060803 13.87175098 18.82369481 18 21 C18.99 21 19.98 21 21 21 C21 21.66 21 22.32 21 23 C22.32 22.67 23.64 22.34 25 22 C25 22.66 25 23.32 25 24 C25.66 23.67 26.32 23.34 27 23 C30.5 22.75 30.5 22.75 34 23 C34.66 23.99 35.32 24.98 36 26 C24.36537393 26.65649928 16.63644882 25.36697645 7.625 17.75 C3.47951745 13.78078206 0.89868055 10.42480158 -1 5 C-0.75 2 -0.75 2 0 0 Z " fill="#FCDFE1" transform="translate(182,127)" />
<path d="M0 0 C1.61456974 0.11867467 3.22915347 0.23715918 4.84375 0.35546875 C5.67132813 0.42169434 6.49890625 0.48791992 7.3515625 0.55615234 C11.39766231 0.86696922 15.44848271 1.08573274 19.5 1.3125 C20.92972225 1.39654638 22.35941336 1.48112534 23.7890625 1.56640625 C25.31660156 1.65728516 25.31660156 1.65728516 26.875 1.75 C25.885 2.41 24.895 3.07 23.875 3.75 C30.805 4.245 30.805 4.245 37.875 4.75 C37.875 5.08 37.875 5.41 37.875 5.75 C34.41668516 5.77949232 30.95840346 5.7969616 27.5 5.8125 C26.53449219 5.82087891 25.56898438 5.82925781 24.57421875 5.83789062 C18.99632092 5.8566084 13.56083485 5.59715876 8.01806641 4.97485352 C5.58578918 4.7196556 3.19474225 4.64806867 0.75 4.6875 C-0.52875 4.708125 -1.8075 4.72875 -3.125 4.75 C-3.125 4.42 -3.125 4.09 -3.125 3.75 C-5.765 3.42 -8.405 3.09 -11.125 2.75 C-8.38276159 -1.43893111 -4.41208358 -0.39666998 0 0 Z " fill="#FCE2E5" transform="translate(118.125,282.25)" />
<path d="M0 0 C-1.91315119 2.57619276 -2.9016314 2.98395232 -6.13671875 3.51171875 C-7.30847656 3.56972656 -8.48023438 3.62773437 -9.6875 3.6875 C-10.86699219 3.75324219 -12.04648438 3.81898438 -13.26171875 3.88671875 C-14.61716797 3.94279297 -14.61716797 3.94279297 -16 4 C-12.7 4.33 -9.4 4.66 -6 5 C-6 5.33 -6 5.66 -6 6 C-6.6297876 5.99476318 -7.2595752 5.98952637 -7.90844727 5.98413086 C-10.79312115 5.96319862 -13.67777898 5.9502885 -16.5625 5.9375 C-17.55314453 5.92912109 -18.54378906 5.92074219 -19.56445312 5.91210938 C-24.82548699 5.89463086 -29.81764665 6.07691602 -35 7 C-34.01 6.34 -33.02 5.68 -32 5 C-32.33 4.34 -32.66 3.68 -33 3 C-21.88200748 1.00871776 -11.32949069 -0.49901509 0 0 Z " fill="#FCE0E2" transform="translate(208,164)" />
<path d="M0 0 C5.80836508 0.9757135 10.82990736 2.02719673 16 5 C16.66 5.33 17.32 5.66 18 6 C22 8 26 10 30 12 C29.67 12.66 29.34 13.32 29 14 C25.0507432 13.44894091 21.65079826 12.61064629 18 11 C18 10.34 18 9.68 18 9 C11.0834212 6.57919742 4.12647031 4.70022388 -3 3 C-2.01 2.67 -1.02 2.34 0 2 C0 1.34 0 0.68 0 0 Z " fill="#FCE3E5" transform="translate(231,40)" />
<path d="M0 0 C2 1 2 1 3 3 C-4.18661209 11.60645946 -10.73435566 17.33192028 -21 22 C-21 21.01 -21 20.02 -21 19 C-19.57885742 17.72900391 -19.57885742 17.72900391 -17.60546875 16.4765625 C-16.89712891 16.0125 -16.18878906 15.5484375 -15.45898438 15.0703125 C-13.95654144 14.11432989 -12.4539398 13.15859666 -10.95117188 12.203125 C-6.87960793 9.53542156 -4.15141375 7.51419446 -2 3 C-1.34 2.01 -0.68 1.02 0 0 Z " fill="#FCDEE1" transform="translate(331,209)" />
<path d="M0 0 C2.5625 0.375 2.5625 0.375 4.4375 2.0625 C5.5625 4.375 5.5625 4.375 5.375 7.0625 C4.5625 9.375 4.5625 9.375 2.5625 10.375 C-0.4375 10.625 -0.4375 10.625 -3.4375 10.375 C-5.4375 7.375 -5.4375 7.375 -5.1875 4.8125 C-4.1927353 1.57951474 -3.3898104 0.52150929 0 0 Z M-2.4375 2.375 C-1.4375 4.375 -1.4375 4.375 -1.4375 4.375 Z " fill="#FBD2D6" transform="translate(259.4375,177.625)" />
<path d="M0 0 C2.375 1.375 2.375 1.375 3.3125 3.8125 C3.375 6.375 3.375 6.375 1.375 9.375 C-1.625 9.6875 -1.625 9.6875 -4.625 9.375 C-5.285 8.715 -5.945 8.055 -6.625 7.375 C-6.25 3.75 -6.25 3.75 -5.625 0.375 C-2.625 -0.625 -2.625 -0.625 0 0 Z " fill="#FBD2D6" transform="translate(317.625,133.625)" />
<path d="M0 0 C2.625 0.3125 2.625 0.3125 6 2 C8.41756721 5.45972651 10.17083548 9.20472816 12 13 C12.50273437 13.9384375 13.00546875 14.876875 13.5234375 15.84375 C16.20619159 20.88317757 16.20619159 20.88317757 17 23 C16.67 23.99 16.34 24.98 16 26 C10.58823217 17.37967417 5.1812533 8.76179419 0 0 Z " fill="#FCDEE1" transform="translate(285,78)" />
<path d="M0 0 C1.98 0 3.96 0 6 0 C6.33 0.99 6.66 1.98 7 3 C10.00847418 4.22520264 10.00847418 4.22520264 13 5 C13.33 4.34 13.66 3.68 14 3 C14.99 3.33 15.98 3.66 17 4 C16.67 4.99 16.34 5.98 16 7 C15.34 7 14.68 7 14 7 C14 7.66 14 8.32 14 9 C11.03 9 8.06 9 5 9 C5 8.01 5 7.02 5 6 C3.9227279 4.34496905 3.9227279 4.34496905 2.5 2.8125 C1.675 1.884375 0.85 0.95625 0 0 Z " fill="#FCDDDF" transform="translate(164,209)" />
<path d="M0 0 C6.96880968 5.30235519 6.96880968 5.30235519 8 10 C7.84452048 13.80924818 7.45515272 15.47588474 4.9375 18.375 C4.298125 18.91125 3.65875 19.4475 3 20 C2.01 19.67 1.02 19.34 0 19 C0.66 18.484375 1.32 17.96875 2 17.4375 C4.29945774 15.06468053 4.29945774 15.06468053 4.5 11.5 C3.92453538 7.47174765 3.16310919 6.44011281 0 4 C-0.99 3.34 -1.98 2.68 -3 2 C-2.01 1.34 -1.02 0.68 0 0 Z " fill="#FCE2E5" transform="translate(193,93)" />
<path d="M0 0 C2.6875 0.875 2.6875 0.875 5 2 C4.67 4.31 4.34 6.62 4 9 C2.00045254 9.04254356 -0.00041636 9.04080783 -2 9 C-3 8 -3 8 -3.25 5.0625 C-3.1675 4.051875 -3.085 3.04125 -3 2 C-2.01 1.34 -1.02 0.68 0 0 Z " fill="#FBD2D6" transform="translate(329,53)" />
<path d="M0 0 C0.33 0 0.66 0 1 0 C1.31042285 9.80706267 1.39925415 18.63181742 -2 28 C-2.99 27.67 -3.98 27.34 -5 27 C-4.690625 25.80375 -4.38125 24.6075 -4.0625 23.375 C-2.83908704 17.99369405 -2.58584059 12.63822747 -2.34375 7.13671875 C-2.02338153 4.21335646 -1.5174406 2.47807841 0 0 Z " fill="#FCDDE0" transform="translate(341,175)" />
<path d="M0 0 C16.8929385 1.92710706 16.8929385 1.92710706 24 4 C23.01 4.495 23.01 4.495 22 5 C22 5.66 22 6.32 22 7 C14.59225491 5.60695059 7.29829463 3.88100377 0 2 C0 1.34 0 0.68 0 0 Z " fill="#FCDCDE" transform="translate(220,44)" />
<path d="M0 0 C6.17222879 1.24028238 12.06682122 2.89603589 18 5 C17.67 5.99 17.34 6.98 17 8 C14.36 8 11.72 8 9 8 C9 7.34 9 6.68 9 6 C5.37 5.01 1.74 4.02 -2 3 C-1.34 2.01 -0.68 1.02 0 0 Z " fill="#FCDDE0" transform="translate(148,248)" />
<path d="M0 0 C2.475 0.99 2.475 0.99 5 2 C3.89824464 4.47894956 2.733707 6.3245446 1 8.4375 C-0.93700009 10.91928137 -1.98570439 13.04163782 -3 16 C-3.99 15.34 -4.98 14.68 -6 14 C-4.74194623 9.49197399 -3.09592835 6.5087188 0 3 C-0.99 2.67 -1.98 2.34 -3 2 C-2.01 2 -1.02 2 0 2 C0 1.34 0 0.68 0 0 Z " fill="#FCDCDF" transform="translate(331,129)" />
<path d="M0 0 C1.31352023 0.30818356 2.62579572 0.62167665 3.9375 0.9375 C5.03384766 1.19853516 5.03384766 1.19853516 6.15234375 1.46484375 C8 2 8 2 9 3 C10.99581241 3.22902765 12.99170167 3.45744704 14.98828125 3.6796875 C17.27925072 4.04446322 19.03483569 4.77177231 21 6 C19.9275 5.979375 18.855 5.95875 17.75 5.9375 C14.26817301 5.81675396 14.26817301 5.81675396 12.125 6.59375 C9.18560901 7.1556924 7.0999262 6.41069232 4.25 5.5625 C3.26515625 5.27503906 2.2803125 4.98757812 1.265625 4.69140625 C0.14414063 4.34916016 0.14414063 4.34916016 -1 4 C-0.67 2.68 -0.34 1.36 0 0 Z " fill="#FCD9DC" transform="translate(132,236)" />
<path d="M0 0 C0 0.33 0 0.66 0 1 C-8.08808989 2.60614551 -15.7574683 3.26305952 -24 3 C-18.09270158 -3.29549232 -7.85775104 -1.33748954 0 0 Z " fill="#FCE0E3" transform="translate(137,196)" />
<path d="M0 0 C1.32 0.33 2.64 0.66 4 1 C2.01027225 5.51854431 -0.98122179 8.21445201 -5 11 C-7.9375 11.875 -7.9375 11.875 -10 12 C-9.61328125 11.55269531 -9.2265625 11.10539063 -8.828125 10.64453125 C-5.81609925 7.1478974 -2.85678969 3.62592537 0 0 Z " fill="#FCDDE0" transform="translate(349,135)" />
<path d="M0 0 C0 0.33 0 0.66 0 1 C-1.216875 1.226875 -2.43375 1.45375 -3.6875 1.6875 C-7.99274221 2.77907737 -10.28602781 4.38137041 -13 8 C-13.81789156 11.14573676 -14 13.75948962 -14 17 C-14.66 17 -15.32 17 -16 17 C-16.3743038 12.32120251 -16.44402217 8.92219989 -14.375 4.625 C-9.95709479 -0.25794786 -6.41280129 -1.6795432 0 0 Z " fill="#FCE3E5" transform="translate(74,251)" />
<path d="M0 0 C0.66 0.33 1.32 0.66 2 1 C1.34 1.66 0.68 2.32 0 3 C0.33 3.66 0.66 4.32 1 5 C-0.49739583 6.23697917 -1.99479167 7.47395833 -3.4921875 8.7109375 C-4.71051161 9.75250992 -5.86660097 10.86660097 -7 12 C-7.33 11.67 -7.66 11.34 -8 11 C-8.66 12.32 -9.32 13.64 -10 15 C-10.08759561 10.79541058 -9.83871971 8.90993176 -6.9296875 5.75390625 C-4.66776022 3.76497019 -2.37731753 1.84902474 0 0 Z " fill="#FCD9DC" transform="translate(213,195)" />
<path d="M0 0 C5.94074887 1.00332648 10.20186518 2.30912706 15 6 C14.01 6.66 13.02 7.32 12 8 C7.48083792 6.87020948 3.25638514 4.87280946 -1 3 C-0.67 2.01 -0.34 1.02 0 0 Z " fill="#FCDEE0" transform="translate(362,122)" />
<path d="M0 0 C1.32 0 2.64 0 4 0 C3.21824485 4.84688192 1.60155722 9.3766367 0 14 C-0.66 13.34 -1.32 12.68 -2 12 C-2.66 12.99 -3.32 13.98 -4 15 C-3.4000444 10.8003108 -2.42052749 6.99523357 -1 3 C-0.67 2.01 -0.34 1.02 0 0 Z " fill="#FCDCDF" transform="translate(344,42)" />
<path d="M0 0 C7.04440079 -0.21133202 13.24112575 -0.07965362 20 2 C20 2.33 20 2.66 20 3 C17.41603321 3.08112454 14.83462432 3.14054748 12.25 3.1875 C11.52039063 3.21263672 10.79078125 3.23777344 10.0390625 3.26367188 C6.65513396 3.30981636 4.42141443 3.25324128 1.484375 1.48828125 C0.99453125 0.99714844 0.5046875 0.50601562 0 0 Z " fill="#FBD1D5" transform="translate(95,281)" />
<path d="M0 0 C0.33 1.32 0.66 2.64 1 4 C2.65 4 4.3 4 6 4 C6 3.01 6 2.02 6 1 C6.66 1 7.32 1 8 1 C7.34 6.94 6.68 12.88 6 19 C5.67 19 5.34 19 5 19 C4.67 14.71 4.34 10.42 4 6 C2.68 5.67 1.36 5.34 0 5 C0 3.35 0 1.7 0 0 Z " fill="#FCE1E4" transform="translate(159,185)" />
<path d="M0 0 C2.64 0.33 5.28 0.66 8 1 C7.67 1.66 7.34 2.32 7 3 C7.825 3.45375 8.65 3.9075 9.5 4.375 C10.325 4.91125 11.15 5.4475 12 6 C12 6.66 12 7.32 12 8 C8.56698276 7.22092044 5.24589962 6.37574553 2 5 C0.375 2.3125 0.375 2.3125 0 0 Z " fill="#FCDDE0" transform="translate(225,326)" />
<path d="M0 0 C0.99 0.33 1.98 0.66 3 1 C0.36 3.64 -2.28 6.28 -5 9 C-5.99 8.01 -6.98 7.02 -8 6 C-6.7391988 4.96680187 -5.46596742 3.94875621 -4.1875 2.9375 C-3.47980469 2.36902344 -2.77210938 1.80054688 -2.04296875 1.21484375 C-1.36878906 0.81394531 -0.69460937 0.41304687 0 0 Z " fill="#FCDDE0" transform="translate(220,246)" />
<path d="M0 0 C2.84875378 0.20153707 5.25099253 1.14375177 8 2 C7.67 3.32 7.34 4.64 7 6 C3.7 5.01 0.4 4.02 -3 3 C-2.01 2.01 -1.02 1.02 0 0 Z " fill="#FCDFE2" transform="translate(120,232)" />
<path d="M0 0 C3.5742977 0.32493615 5.55712453 0.63870686 8.375 2.9375 C10 5 10 5 10 7 C9.01 7.33 8.02 7.66 7 8 C6.1028125 6.7934375 6.1028125 6.7934375 5.1875 5.5625 C3.19052724 2.77672016 3.19052724 2.77672016 0 2 C0 1.34 0 0.68 0 0 Z " fill="#FCDEE1" transform="translate(196,280)" />
<path d="M0 0 C1.1055189 0.93590504 2.20935453 1.87379858 3.3125 2.8125 C3.92738281 3.33457031 4.54226563 3.85664063 5.17578125 4.39453125 C6.85424679 5.87172469 8.43882034 7.40039131 10 9 C8.25 9.75 8.25 9.75 6 10 C3.4299869 7.88351863 1.85230389 5.77845583 0 3 C0 2.01 0 1.02 0 0 Z " fill="#FCDADE" transform="translate(296,252)" />
<path d="M0 0 C4.84659077 0.59104765 8.60748167 1.97944157 13 4 C13 4.99 13 5.98 13 7 C8.1725201 5.58707905 4.2837641 3.57025846 0 1 C0 0.67 0 0.34 0 0 Z " fill="#FCE0E2" transform="translate(103,227)" />
<path d="M0 0 C-0.99 0.33 -1.98 0.66 -3 1 C-2.34 1.66 -1.68 2.32 -1 3 C-5.455 3.495 -5.455 3.495 -10 4 C-10.33 3.01 -10.66 2.02 -11 1 C-3.57142857 -1.42857143 -3.57142857 -1.42857143 0 0 Z " fill="#FCDDE0" transform="translate(148,301)" />
<path d="M0 0 C3.68754757 0.49831724 5.60490662 1.10067643 8 4 C7.67 4.66 7.34 5.32 7 6 C7 6.99 7 7.98 7 9 C6.34 9 5.68 9 5 9 C2 4.61538462 2 4.61538462 2 2 C1.34 2 0.68 2 0 2 C0 1.34 0 0.68 0 0 Z " fill="#FCE0E2" transform="translate(252,233)" />
<path d="M0 0 C0.66 0.33 1.32 0.66 2 1 C2 1.99 2 2.98 2 4 C-1.3 4.66 -4.6 5.32 -8 6 C-8 5.34 -8 4.68 -8 4 C-6.71349294 3.30289269 -5.42059335 2.61757124 -4.125 1.9375 C-3.40570313 1.55464844 -2.68640625 1.17179687 -1.9453125 0.77734375 C-1.30335938 0.52082031 -0.66140625 0.26429688 0 0 Z " fill="#FCE0E3" transform="translate(202,324)" />
<path d="M0 0 C0.66 0.33 1.32 0.66 2 1 C-1.63 4.63 -5.26 8.26 -9 12 C-9 7.8407692 -6.75316432 5.85455565 -4 3 C-1.6875 1.125 -1.6875 1.125 0 0 Z " fill="#FCDCDF" transform="translate(321,47)" />
<path d="M0 0 C0.5534764 2.07553648 1 3.84365964 1 6 C-1.31 6.33 -3.62 6.66 -6 7 C-5.01 6.67 -4.02 6.34 -3 6 C-3 5.01 -3 4.02 -3 3 C-4.32 2.67 -5.64 2.34 -7 2 C-4.69 1.34 -2.38 0.68 0 0 Z " fill="#FCDFE2" transform="translate(204,211)" />
<path d="M0 0 C-0.55774272 3.23490776 -1.37211508 4.97855006 -4 7 C-4.99 7 -5.98 7 -7 7 C-4.60526316 0 -4.60526316 0 0 0 Z " fill="#FCDBDE" transform="translate(276,182)" />
<path d="M0 0 C2.64 0 5.28 0 8 0 C8 0.66 8 1.32 8 2 C5 4 5 4 2.875 3.8125 C2.25625 3.544375 1.6375 3.27625 1 3 C0.67 2.01 0.34 1.02 0 0 Z " fill="#FCE2E5" transform="translate(215,115)" />
<path d="M0 0 C2.64 0.66 5.28 1.32 8 2 C7.01 3.485 7.01 3.485 6 5 C3.69 4.67 1.38 4.34 -1 4 C-0.67 2.68 -0.34 1.36 0 0 Z " fill="#FCE2E4" transform="translate(132,236)" />
<path d="M0 0 C-0.598125 0.268125 -1.19625 0.53625 -1.8125 0.8125 C-4.1342786 2.0728941 -5.4494309 2.85873791 -7 5 C-7.73041853 8.61023099 -7.73041853 8.61023099 -8 12 C-8.33 12 -8.66 12 -9 12 C-9.48539326 4.71910112 -9.48539326 4.71910112 -7.3125 1.5 C-4.62023779 -0.24633224 -3.14839906 -0.34982212 0 0 Z " fill="#FDE5E7" transform="translate(365,196)" />
<path d="M0 0 C0.66 0.33 1.32 0.66 2 1 C2.75 3.875 2.75 3.875 3 7 C2.01 8.485 2.01 8.485 1 10 C-0.83691257 6.21812119 -1.15837626 4.05431692 0 0 Z " fill="#FCDDE0" transform="translate(213,123)" />
<path d="M0 0 C0.5775 0.763125 1.155 1.52625 1.75 2.3125 C3.71703093 4.66200917 5.48476744 6.29323505 8 8 C7.01 8.495 7.01 8.495 6 9 C3.5249829 7.88568235 1.32116581 6.41849022 -1 5 C-0.67 3.35 -0.34 1.7 0 0 Z " fill="#FCDDE0" transform="translate(313,98)" />
<path d="M0 0 C6.625 0.75 6.625 0.75 10 3 C8.375 3.6875 8.375 3.6875 6 4 C2.75 2.5625 2.75 2.5625 0 1 C0 0.67 0 0.34 0 0 Z " fill="#FCE2E5" transform="translate(345,117)" />
<path d="M0 0 C0.99 0.33 1.98 0.66 3 1 C2.1875 3.9375 2.1875 3.9375 1 7 C0.01 7.33 -0.98 7.66 -2 8 C-1.34 5.36 -0.68 2.72 0 0 Z " fill="#FCE1E3" transform="translate(307,65)" />
<path d="M0 0 C0.66 0 1.32 0 2 0 C2.33 0.99 2.66 1.98 3 3 C1.68 3.99 0.36 4.98 -1 6 C-2.32 5.34 -3.64 4.68 -5 4 C-4.175 3.525625 -3.35 3.05125 -2.5 2.5625 C-1.2625 1.7890625 -1.2625 1.7890625 0 1 C0 0.67 0 0.34 0 0 Z " fill="#FCE1E4" transform="translate(233,141)" />
<path d="M0 0 C-0.33 0.99 -0.66 1.98 -1 3 C-3.31 3 -5.62 3 -8 3 C-6.23110084 -0.53779831 -3.70375662 0 0 0 Z " fill="#FBCCD1" transform="translate(152,300)" />
<path d="M0 0 C0.99 0.33 1.98 0.66 3 1 C2.25 3.4375 2.25 3.4375 1 6 C-1.125 6.8125 -1.125 6.8125 -3 7 C-1.125 2.25 -1.125 2.25 0 0 Z " fill="#FCDDE0" transform="translate(277,183)" />
<path d="M0 0 C1.32 0 2.64 0 4 0 C4.33 1.32 4.66 2.64 5 4 C3.68 4.99 2.36 5.98 1 7 C1.20625 6.21625 1.4125 5.4325 1.625 4.625 C1.74875 3.75875 1.8725 2.8925 2 2 C1.34 1.34 0.68 0.68 0 0 Z " fill="#FCDFE2" transform="translate(153,309)" />
<path d="M0 0 C3.65316671 1.24976756 4.78065836 1.67098753 7 5 C3.47967572 5 2.5614657 4.29648649 0 2 C0 1.34 0 0.68 0 0 Z " fill="#FCE0E2" transform="translate(244,228)" />
<path d="M0 0 C0.99 0.33 1.98 0.66 3 1 C1.68 2.32 0.36 3.64 -1 5 C-1.33 4.01 -1.66 3.02 -2 2 C-1.34 1.34 -0.68 0.68 0 0 Z M-4 3 C-3.01 3.495 -3.01 3.495 -2 4 C-2.66 5.32 -3.32 6.64 -4 8 C-4 6.35 -4 4.7 -4 3 Z " fill="#FCE2E5" transform="translate(207,202)" />
</svg>