<?xml version='1.0' encoding='utf-8'?>
<svg xmlns="http://www.w3.org/2000/svg" version="1.1" id="Layer_1" x="0px" y="0px" width="100%" viewBox="0 0 476 356" enable-background="new 0 0 476 356" xml:space="preserve">
<path fill="#FBCDD2" opacity="1.000000" stroke="none" d=" M155.130615,192.189774   C149.413406,191.405884 147.554626,187.017303 147.267166,182.813263   C146.974045,178.526413 150.661728,176.286499 154.704941,174.956375   C164.971802,171.578812 175.097321,167.708572 186.465210,166.977951   C187.957260,166.199127 189.194717,166.659134 190.658218,166.313904   C192.019318,166.106171 193.061142,166.052567 194.495331,165.980194   C196.940872,165.017731 199.126129,165.774185 201.601105,165.316711   C206.518661,165.236938 211.003677,164.861572 215.201523,162.951782   C218.570969,161.418915 220.876053,159.218079 222.439056,155.467056   C224.393265,150.777252 221.229523,153.233063 219.496887,153.024048   C217.724792,153.883224 216.167618,153.291321 214.360168,153.686371   C213.566666,153.894547 213.115402,153.946426 212.330505,153.919052   C211.185745,150.109543 214.654633,152.304108 215.544144,151.314377   C212.331818,150.561218 210.033173,154.350174 206.230316,153.236725   C205.890854,153.066055 205.986221,153.015671 205.951950,153.057312   C205.505386,152.296265 206.102783,151.077103 204.773285,150.637650   C199.201447,148.795868 194.499298,145.470016 189.935333,141.901031   C189.295944,141.401031 188.426605,141.252640 187.264847,141.128159   C186.202591,140.945724 185.931213,140.454041 185.972198,139.426178   C185.026245,137.261078 185.504059,134.774277 183.146942,133.257019   C182.890335,133.061142 182.967834,133.015472 182.952805,133.057861   C182.031326,132.186768 183.180603,131.103516 182.432037,130.074158   C180.514069,121.949524 184.569672,115.944786 189.266571,110.183128   C193.624344,104.837471 193.224243,102.850716 187.141098,99.645058   C183.516556,97.735016 180.546860,95.203514 181.069977,90.646439   C181.322113,88.450134 179.434509,87.570328 178.988831,85.501579   C178.360565,84.367096 178.578598,83.453270 178.311554,82.315704   C177.678436,72.976639 182.822479,67.065758 192.511505,65.982605   C194.309052,65.158783 195.823410,65.624275 197.687805,65.763138   C199.366379,65.899750 200.645859,65.833656 202.346359,65.745811   C198.676804,60.239128 196.483398,54.822021 198.833191,48.581291   C201.715118,40.927288 208.219437,38.014118 215.441162,37.129723   C224.270782,36.048416 232.985657,37.952114 241.542847,40.210743   C258.405640,44.661587 271.187744,54.957916 282.148010,68.101830   C284.892395,71.392967 288.981506,73.524437 292.062195,76.582230   C296.974060,81.457550 301.524994,86.694839 306.313446,91.697800   C307.148621,92.570374 307.747650,94.010315 309.479431,93.856445   C311.346832,83.736732 313.211243,73.633308 315.204010,62.834148   C311.929504,65.447578 310.884888,68.744720 309.130341,71.513084   C308.570984,72.395653 308.586670,73.977211 307.130371,73.458389   C305.333282,72.818153 306.820618,71.420639 307.040955,70.584679   C311.244568,54.634731 324.573151,42.212658 341.587280,42.995281   C343.414886,43.079353 345.250092,42.996807 347.542297,43.065144   C348.576355,43.820316 348.481964,44.625294 348.232239,45.775814   C347.024994,48.985798 345.991119,51.836700 344.999298,54.702164   C342.089172,63.109673 345.849640,70.195396 349.733002,77.112991   C352.165802,81.446671 355.477417,85.289543 357.879913,89.637115   C361.185730,95.619507 363.094757,102.106949 363.021027,109.489594   C364.018585,112.342575 363.186127,114.882256 363.825409,117.652222   C371.664673,120.544586 378.224579,125.060623 384.141571,130.093994   C399.959656,143.549881 413.684448,158.658295 417.973572,180.028885   C420.026306,190.256897 417.250824,197.407272 409.472290,201.024689   C407.698303,201.854904 406.168640,201.367065 404.287109,201.238861   C401.132202,200.364120 399.078369,198.634109 397.113037,196.705536   C394.955414,194.588272 392.816528,191.040588 389.613007,192.380768   C387.000305,193.473801 387.218719,197.331345 386.916992,200.626740   C386.116241,202.786942 386.699310,204.637711 386.230042,206.762039   C385.422333,215.166412 384.064178,222.850281 375.458496,227.018219   C373.685852,227.854584 372.158661,227.367020 370.280579,227.239807   C366.695435,224.856613 364.076324,225.735641 361.290192,228.096939   C359.538239,229.581741 357.437073,230.988724 354.488892,231.022095   C352.683868,231.902588 351.085602,231.258408 349.317444,231.825195   C348.862823,233.864868 350.661957,235.264725 350.020752,237.517975   C350.965607,241.323303 350.312347,244.806335 350.237976,248.690170   C347.935425,255.366150 342.049713,257.284668 336.876953,253.321030   C335.446869,252.225235 334.359253,250.686859 332.945801,249.563904   C331.472168,248.393158 330.532745,245.466553 328.507233,246.336288   C326.500763,247.197815 325.748535,249.792953 325.919617,252.639496   C325.199707,254.124268 325.646362,255.353302 325.221985,256.799561   C325.155334,262.880615 321.613342,265.909698 316.479919,268.026184   C314.039673,268.931824 311.867218,268.327667 309.323090,268.237122   C302.709900,268.043518 298.641174,263.798309 294.049042,260.600098   C292.933960,259.823486 292.529358,258.561157 293.197235,257.580475   C293.934692,256.497711 295.131226,256.811829 296.203125,257.622070   C296.993469,258.219482 297.857605,260.427856 298.960480,257.470459   C298.715637,256.545166 298.851135,256.104340 299.745056,255.867706   C303.221558,258.609039 306.315338,261.261688 309.735168,264.045898   C311.471619,264.815857 312.948608,264.426300 314.678589,264.315125   C317.928772,262.027893 320.353912,259.495148 321.087128,255.327179   C321.879150,253.207703 321.302765,251.360077 321.769897,249.238220   C321.659454,245.525436 323.002319,242.848495 326.035828,241.545227   C329.508148,240.053452 332.508545,242.141754 335.284027,243.874817   C336.911560,244.891129 338.146362,246.555267 339.505646,247.977859   C341.485291,250.049744 343.246552,249.748550 345.030365,247.276276   C345.892426,244.565598 345.375916,242.115799 345.315552,239.358246   C344.375946,234.971954 344.215179,230.570053 339.112549,228.982208   C339.741791,227.375488 342.258026,228.777954 342.063232,226.373795   C341.783966,222.927048 337.157135,213.772751 334.453339,212.935593   C333.806000,213.311462 333.458984,213.562759 332.815735,213.939514   C331.750824,214.357895 330.946899,214.590286 330.164612,215.484116   C329.810699,215.875565 329.665619,216.030380 329.286133,216.402283   C328.886383,216.753662 328.721100,216.888000 328.304016,217.217621   C326.395905,218.491104 325.489594,220.175629 324.304077,222.045807   C323.943756,222.435989 323.786469,222.578873 323.371155,222.904510   C322.929626,223.186768 322.746094,223.286255 322.271423,223.487244   C321.627350,223.659317 321.124969,223.444046 320.941925,223.667542   C320.526093,224.175354 320.742767,223.495712 321.415405,224.150146   C321.557129,224.820312 321.494049,225.209702 321.218719,225.853210   C321.082214,226.119568 321.041779,226.034409 321.086060,226.050613   C320.937744,226.191986 320.745209,226.317139 320.278656,226.650970   C320.004608,226.859634 319.568481,226.996338 319.341309,227.020966   C318.815552,227.324081 318.492462,227.382965 317.976196,226.934418   C317.743591,226.400208 317.968414,226.229767 318.143768,226.035355   C317.849701,226.028687 317.648865,226.188110 317.358887,226.752167   C315.928436,228.120255 314.117981,228.617157 313.198853,230.600708   C305.905548,235.299561 297.661499,236.461639 289.500427,239.006485   C287.825897,241.028702 288.830078,243.267563 288.239258,245.718048   C288.870941,265.553650 274.671661,279.463806 254.149582,283.998596   C251.777542,284.522766 249.455002,285.394196 246.528412,285.020569   C244.056015,285.983124 241.877869,285.224335 239.410370,285.679993   C235.803070,287.553497 232.996887,290.029755 229.345428,291.052917   C227.801498,291.485504 224.599564,300.771698 225.538300,301.988007   C228.513016,305.842316 230.287476,310.325775 232.172623,314.704498   C233.228210,317.156372 235.039917,318.454193 237.161270,318.536346   C242.120300,318.728424 245.963989,321.337799 250.083893,323.473755   C251.304840,324.106781 252.678024,324.632782 251.888901,326.235321   C250.999634,328.041199 249.974792,326.222961 249.054199,326.005280   C243.616837,324.719513 238.199951,323.347137 232.372299,321.923523   C228.730087,320.816315 225.282532,322.232147 222.037994,320.574738   C223.554199,318.173370 227.738647,319.281128 227.761963,316.318604   C227.778259,314.246124 225.876236,311.997345 224.447952,310.118500   C222.917175,308.104828 223.163651,303.356445 218.338776,305.630341   C218.066956,305.758423 216.531204,304.712830 217.509811,304.036835   C221.338669,301.392029 218.740097,298.758087 217.141434,296.934845   C215.676819,295.264435 214.057571,298.225311 212.142059,298.576355   C212.841873,300.306641 212.375153,301.823792 212.236984,303.691711   C212.011139,304.748993 212.259613,305.739777 211.923920,306.013092   C207.738449,309.421021 211.302017,312.164429 212.647797,315.065765   C212.910721,315.632629 213.786453,315.998993 213.883972,316.546143   C215.075775,323.233093 219.837982,323.577820 225.595001,323.083496   C227.135162,323.797028 228.366608,323.352814 229.817078,323.780334   C233.610901,325.449402 237.649368,325.629425 241.495514,329.001129   C238.714096,329.001129 236.763763,329.001129 234.391266,328.921631   C232.737473,328.412720 231.503616,327.971863 230.876129,329.728973   C231.684021,330.072052 232.272308,330.180817 232.953522,330.581879   C233.315659,332.056000 232.619583,332.375580 231.264969,332.241913   C225.846756,330.692383 220.806946,329.345856 215.366852,327.918518   C212.564758,327.106415 210.110443,327.624512 207.349411,327.688232   C203.255051,328.824829 199.588242,330.300568 194.905106,330.426208   C198.844635,326.039642 203.606339,325.075867 208.224747,324.078827   C211.390030,323.395416 212.248505,322.443604 210.202896,319.587402   C208.718842,317.515259 207.319336,315.276733 206.448425,312.904480   C205.742630,310.982056 204.586426,310.914673 203.071747,310.997284   C199.355453,311.199921 196.698730,309.678589 194.724167,306.471008   C193.625153,304.685760 192.332901,303.810333 189.465775,304.599823   C181.236282,306.865814 172.797302,308.445374 164.368622,309.867889   C161.867203,310.290100 160.118393,310.798431 158.915756,313.138245   C158.373123,314.193939 157.601410,316.347900 155.943649,315.237183   C154.237152,314.093811 156.378998,312.913513 156.815872,311.402649   C156.691528,310.228851 156.048737,310.576233 155.280899,310.703613   C154.293228,310.891724 153.565048,310.945038 152.470566,311.018738   C150.716278,311.886932 149.166077,311.289032 147.368347,311.684509   C145.660583,311.890076 144.294724,311.943298 142.518143,312.017761   C139.724640,313.010345 137.222351,312.206146 134.413330,312.681519   C132.649551,312.666290 130.841675,314.144196 130.089447,311.397766   C131.441956,310.048462 132.943588,310.741913 134.647217,310.318604   C136.019501,310.112305 137.066650,310.057892 138.507919,309.981934   C140.285477,309.112885 141.831345,309.711029 143.624741,309.318787   C144.698273,309.113007 145.429810,309.056641 146.529602,308.980347   C147.959183,308.199097 149.195282,308.659180 150.657242,308.314484   C155.740280,306.897064 161.826248,308.079620 163.466568,301.123596   C156.388962,302.553894 149.161896,303.862305 142.028824,305.564606   C140.281616,305.981567 138.862656,306.112823 138.329727,304.554291   C137.420654,301.895813 140.365738,302.785583 141.140411,302.567047   C148.431900,300.510040 155.752014,298.023407 163.221115,297.312103   C168.280396,296.830261 169.810989,293.258087 172.798920,290.428680   C173.052063,289.441162 172.985565,289.413391 171.302414,289.700195   C168.013428,290.323090 165.098328,291.510193 161.537399,291.017761   C159.717758,291.888153 158.164551,291.287720 156.364136,291.686005   C154.325241,291.892090 152.628311,291.944305 150.506943,292.020020   C145.007141,292.979248 139.890182,292.294037 134.355698,292.239716   C132.857941,292.027832 131.798935,292.012299 130.350861,291.916260   C128.869080,291.203857 127.642487,291.645020 126.197662,291.221313   C125.727547,291.020264 125.560768,291.001953 125.156815,290.899475   C123.513023,290.173828 122.002640,290.665833 120.241135,290.230743   C116.570740,290.029694 113.219376,290.014130 109.415588,289.917358   C105.885651,289.048920 102.744537,289.739990 99.268425,289.237152   C97.518059,289.025574 96.145515,289.012299 94.368866,288.918854   C92.873466,288.201477 91.646599,288.645508 90.202271,288.222198   C82.143875,288.109863 75.152603,285.367401 68.538033,281.754150   C64.372772,279.478851 62.793850,274.983337 60.976032,270.471619   C60.557911,269.131897 60.551529,268.117035 60.635475,266.705261   C62.215961,258.670502 66.164665,255.391800 76.245041,253.662277   C77.857254,253.629654 79.087204,253.619247 80.662720,253.495087   C81.507256,253.504517 82.003677,253.502289 82.499222,253.527634   C82.298508,253.396301 82.071434,253.466980 81.857758,253.451660   C79.711914,253.297699 77.560287,253.365570 75.051392,253.269104   C73.672714,253.096893 72.722610,252.810654 72.033630,251.554077   C72.730736,251.111923 73.456192,251.057175 74.546501,250.980469   C75.743721,250.341415 76.715004,250.565506 77.639198,250.512009   C78.304672,250.473480 77.448074,250.637756 78.103676,250.533905   C78.561089,250.461441 78.563461,250.296295 78.016647,250.078461   C76.229446,247.856873 72.748093,247.922119 71.976181,244.473053   C71.146355,242.705368 71.632835,241.171539 71.760109,239.283447   C76.012711,236.171356 80.069092,233.477402 85.512070,232.975464   C87.648247,232.111313 89.489037,232.649872 91.692719,232.760284   C98.659470,234.735489 105.439301,235.952942 111.707207,238.453537   C117.214233,240.650589 122.729515,242.856873 128.652039,245.084412   C130.461929,245.845901 131.998367,245.323196 133.784515,245.774078   C142.666443,247.969788 151.246536,249.888504 159.767426,252.041641   C162.340210,252.691742 164.703827,254.127304 167.240982,254.968735   C174.285385,257.304962 180.272964,253.016418 186.723557,251.650665   C188.416397,251.292221 189.996872,250.402374 191.621674,249.738800   C191.631744,249.734711 191.579987,249.408966 191.486130,249.353485   C191.231735,249.203186 190.939072,249.117630 190.313141,248.922562   C188.213425,248.113617 186.360306,248.700897 184.233917,248.229736   C181.866592,248.024536 179.839859,248.010056 177.385529,247.913727   C174.213150,247.064194 171.399521,247.731918 168.261536,247.235809   C167.154602,247.024124 166.418411,247.009293 165.322601,246.915070   C163.541428,246.152222 162.004425,246.677307 160.218262,246.226196   C146.965546,245.315216 134.709656,241.757477 122.676620,237.240936   C121.927513,236.959763 121.087715,236.920166 120.122955,236.421738   C120.672234,232.276520 117.256790,232.981140 115.142204,231.799011   C114.251236,231.369553 113.638100,231.135895 112.555603,230.450912   C112.820511,229.439911 112.442665,228.840576 111.889069,228.526459   C105.696289,225.012573 107.901077,219.668839 112.043289,216.379120   C114.806381,214.184662 117.930336,213.213043 121.358490,212.931854   C121.451859,212.924194 121.620285,212.656464 121.591209,212.557938   C121.513336,212.294067 121.347000,212.056290 121.089798,211.477112   C120.538376,210.613083 119.916946,210.236923 119.822624,209.231323   C120.044777,204.989471 119.894836,200.928299 125.520355,199.983307   C126.614540,199.285721 127.408417,198.772629 128.338470,198.723648   C125.290154,198.250549 122.028603,199.088882 118.984520,197.506821   C119.736450,197.105728 120.461517,197.053726 121.551254,196.981354   C124.655403,196.070862 127.466476,196.678391 130.666290,196.762085   C139.911987,198.300293 148.583832,200.287399 157.488251,202.984344   C159.243973,199.910263 158.220993,196.713608 158.142670,193.312897   C157.852997,193.037369 157.403397,193.009460 157.192322,192.930893   C156.505386,192.492203 155.913284,192.497391 155.130615,192.189774  z" />
<path fill="#FCDDE0" opacity="1.000000" stroke="none" d=" M187.049805,141.435928   C188.523163,139.320129 190.238678,139.748886 191.635513,141.206421   C195.872070,145.627029 201.166183,148.134705 206.860916,149.971710   C207.607742,150.212616 208.765152,150.181564 208.323196,151.295715   C208.087830,151.889069 207.016342,152.150757 206.119965,152.830551   C201.927994,152.638748 198.373032,151.112152 195.031815,148.381409   C194.891937,148.044693 194.936813,147.587814 194.713745,147.529099   C194.490677,147.470383 194.046768,147.345474 193.876312,147.192734   C193.705856,147.039993 193.576126,146.607758 193.242523,146.849884   C190.997437,145.308090 189.085953,143.524139 187.049805,141.435928  z" />
<path fill="#FDE1E4" opacity="1.000000" stroke="none" d=" M114.617477,230.247116   C116.457626,231.868454 118.976112,231.232697 120.913353,232.375214   C124.137817,234.276901 121.915077,234.751999 120.147011,235.809601   C114.180687,234.694382 109.240013,231.596893 103.290642,228.457031   C106.917175,227.692398 108.972893,229.436813 111.678307,230.013412   C112.068504,230.039520 112.005653,229.955292 111.958969,229.979431   C112.635963,230.671402 113.513809,230.498245 114.617477,230.247116  z" />
<path fill="#FDE3E5" opacity="1.000000" stroke="none" d=" M61.757629,266.605469   C61.714077,267.748657 61.466969,268.609802 61.087654,269.786682   C56.356270,263.970398 59.624607,255.256744 67.071541,252.033417   C68.361511,251.475082 69.837097,251.345596 71.616104,251.092346   C72.643860,251.950546 73.541275,251.981537 74.778458,252.022247   C74.759018,254.664291 72.461205,253.998383 70.903450,254.424011   C64.636604,256.136261 61.104771,260.558105 61.757629,266.605469  z" />
<path fill="#FCD9DD" opacity="1.000000" stroke="none" d=" M322.889343,222.154175   C324.310516,219.940506 325.169708,217.609421 327.666565,216.139359   C328.134308,216.110718 328.307098,216.238586 328.738007,216.173187   C328.996094,215.979935 329.002533,216.001541 328.991577,215.999054   C329.729675,215.028244 330.351593,213.935547 331.768890,213.192810   C332.480804,213.005188 332.955505,213.013657 333.786194,213.033722   C331.260559,218.533386 326.506439,222.203308 321.400391,225.979980   C321.055695,225.655426 321.029144,225.191284 320.993835,224.378525   C321.068848,223.682571 321.268707,223.434052 321.803101,223.141785   C322.001160,222.981873 322.002930,223.001678 321.993042,223.001617   C322.223511,222.774124 322.467041,222.550140 322.889343,222.154175  z" />
<path fill="#FDE6E8" opacity="1.000000" stroke="none" d=" M118.643921,197.084442   C122.826706,199.139297 126.989075,197.215927 131.378098,198.407333   C129.553314,198.987823 128.097305,199.451004 126.270767,199.938080   C122.116318,197.699081 118.291245,199.403900 114.256676,200.075989   C114.875374,197.733643 116.841324,197.728195 118.643921,197.084442  z" />
<path fill="#FEF4F5" opacity="1.000000" stroke="none" d=" M134.121597,292.433289   C138.991028,292.034698 144.065109,292.026001 149.610840,292.030396   C144.917343,294.060242 139.582047,292.638458 134.121597,292.433289  z" />
<path fill="#FCDDE0" opacity="1.000000" stroke="none" d=" M182.947723,133.428101   C187.046677,132.994934 187.127930,135.345825 186.004364,138.747467   C183.894836,137.938950 183.192734,136.010040 182.947723,133.428101  z" />
<path fill="#FCD9DD" opacity="1.000000" stroke="none" d=" M313.346710,230.848511   C312.688232,227.711823 314.926788,226.838272 317.646271,226.037933   C318.228119,226.286102 318.436005,226.556473 318.878998,226.936218   C318.155121,229.518585 315.261658,229.231171 313.346710,230.848511  z" />
<path fill="#FCDDE0" opacity="1.000000" stroke="none" d=" M206.072052,153.434799   C209.374481,153.548676 211.964340,149.394135 215.800797,151.364029   C215.064209,152.813202 212.630966,151.243561 212.076050,153.501587   C210.082321,153.827713 208.167801,153.815628 206.072052,153.434799  z" />
<path fill="#FDE3E5" opacity="1.000000" stroke="none" d=" M231.039810,332.382294   C231.490845,331.834564 232.095123,331.630157 232.872925,331.149963   C235.300201,331.042297 236.310944,333.078888 239.428833,334.267090   C235.410400,335.092804 233.429398,333.300873 231.039810,332.382294  z" />
<path fill="#FDDEE1" opacity="1.000000" stroke="none" d=" M119.569901,208.962784   C120.229347,209.464066 120.499001,210.014130 120.866219,210.855133   C120.470184,211.095810 119.977493,211.032516 119.482796,210.997711   C117.997917,210.893173 116.056900,213.440964 115.319473,211.292206   C114.835037,209.880630 117.356514,209.003616 119.569901,208.962784  z" />
<path fill="#FEF3F4" opacity="1.000000" stroke="none" d=" M221.608643,320.232605   C224.933701,322.104401 228.340637,320.199127 231.665848,321.589539   C228.868240,321.890747 225.767593,321.918427 222.668152,321.995697   C221.435989,322.026398 220.810867,321.638641 221.608643,320.232605  z" />
<path fill="#FEECEE" opacity="1.000000" stroke="none" d=" M350.421082,248.920013   C350.028900,245.691910 350.020111,242.262817 350.025055,238.367462   C352.046509,241.383087 350.645813,245.106232 350.421082,248.920013  z" />
<path fill="#FDE2E5" opacity="1.000000" stroke="none" d=" M157.915741,193.484863   C159.995300,196.040924 158.977646,199.265137 158.199768,202.710083   C157.918961,199.956955 157.948715,196.944656 157.915741,193.484863  z" />
<path fill="#FDE5E7" opacity="1.000000" stroke="none" d=" M99.088394,289.424133   C102.039352,289.135925 105.188095,289.233002 108.650009,289.583130   C105.737518,289.827240 102.511856,289.818329 99.088394,289.424133  z" />
<path fill="#FEF1F2" opacity="1.000000" stroke="none" d=" M130.902634,196.584549   C128.337082,196.968658 125.584557,196.976013 122.373978,196.972168   C124.708572,195.067245 127.763405,196.236832 130.902634,196.584549  z" />
<path fill="#FDE6E9" opacity="1.000000" stroke="none" d=" M168.083923,247.421906   C170.706085,247.136642 173.521362,247.234344 176.647308,247.581970   C174.064316,247.822876 171.170670,247.813873 168.083923,247.421906  z" />
<path fill="#FDE6E8" opacity="1.000000" stroke="none" d=" M345.090393,239.461243   C346.642487,241.391190 346.016022,243.898849 345.410034,246.675827   C345.114929,244.607925 345.066559,242.252747 345.090393,239.461243  z" />
<path fill="#FDE6E9" opacity="1.000000" stroke="none" d=" M134.458435,312.902618   C136.287354,311.257446 138.843521,312.307678 141.676605,312.023926   C139.916611,314.021759 137.281464,312.570221 134.458435,312.902618  z" />
<path fill="#FDE0E2" opacity="1.000000" stroke="none" d=" M207.454041,327.917847   C209.384399,326.346680 211.897110,326.992645 214.678253,327.591400   C212.608063,327.888763 210.249557,327.939819 207.454041,327.917847  z" />
<path fill="#FEF7F8" opacity="1.000000" stroke="none" d=" M364.055023,117.534615   C362.024445,115.833473 363.406342,113.182213 363.034302,110.361061   C364.980743,112.102493 363.563293,114.728806 364.055023,117.534615  z" />
<path fill="#FDDFE1" opacity="1.000000" stroke="none" d=" M299.995483,255.642853   C299.823639,256.170593 299.519470,256.384766 299.085632,256.850220   C297.227142,256.316467 296.591766,255.059052 297.329285,252.961227   C298.245758,253.817719 299.054474,254.573502 299.995483,255.642853  z" />
<path fill="#FEF7F8" opacity="1.000000" stroke="none" d=" M288.418182,245.897369   C288.166351,243.888428 287.581085,241.652542 288.787689,239.272339   C289.001404,241.260635 288.896393,243.488342 288.418182,245.897369  z" />
<path fill="#FCDDE0" opacity="1.000000" stroke="none" d=" M182.092804,130.346588   C182.902679,129.940262 182.915741,128.054016 183.923767,129.093796   C185.290192,130.503296 183.113617,131.294205 182.985229,132.802963   C181.620743,132.688019 182.077881,131.594452 182.092804,130.346588  z" />
<path fill="#FEEDEF" opacity="1.000000" stroke="none" d=" M309.082184,268.403259   C311.009430,268.027252 313.112366,268.018250 315.666595,268.023224   C314.000549,269.865814 311.569214,268.756897 309.082184,268.403259  z" />
<path fill="#FEEBED" opacity="1.000000" stroke="none" d=" M239.454987,285.901489   C240.954544,284.338959 243.188522,285.270508 245.683853,285.025269   C244.291794,287.126923 241.920746,285.478058 239.454987,285.901489  z" />
<path fill="#FDE6E9" opacity="1.000000" stroke="none" d=" M201.553986,165.094055   C200.054672,166.677017 197.810715,165.737396 195.306534,165.977463   C196.701538,163.860535 199.078537,165.510757 201.553986,165.094055  z" />
<path fill="#FEF3F4" opacity="1.000000" stroke="none" d=" M91.931778,232.599701   C90.332687,232.967010 88.563210,232.973724 86.351929,232.969421   C87.656792,231.061081 89.779198,232.220428 91.931778,232.599701  z" />
<path fill="#FEF3F4" opacity="1.000000" stroke="none" d=" M77.541290,249.946747   C78.522476,249.981308 79.155991,250.055862 80.052940,250.161407   C78.629562,251.621857 77.057396,250.735703 75.303741,250.971863   C75.262825,249.673370 76.332001,250.073807 77.541290,249.946747  z" />
<path fill="#FDE9EB" opacity="1.000000" stroke="none" d=" M321.592163,249.075012   C321.860504,250.723236 321.760315,252.547699 321.413910,254.664505   C321.186340,253.054977 321.204987,251.153122 321.592163,249.075012  z" />
<path fill="#FDE9EB" opacity="1.000000" stroke="none" d=" M184.069183,248.408798   C185.722519,248.139618 187.551712,248.240189 189.672806,248.589752   C188.058151,248.818665 186.151596,248.798615 184.069183,248.408798  z" />
<path fill="#FDE6E9" opacity="1.000000" stroke="none" d=" M386.407471,206.924805   C386.140076,205.275284 386.240997,203.448502 386.589233,201.329224   C386.816284,202.940338 386.796021,204.843964 386.407471,206.924805  z" />
<path fill="#FEEDEF" opacity="1.000000" stroke="none" d=" M370.041809,227.388611   C371.326477,227.028473 372.775330,227.019348 374.658051,227.022095   C373.686615,228.815552 371.883728,227.844498 370.041809,227.388611  z" />
<path fill="#FCDDE0" opacity="1.000000" stroke="none" d=" M214.413666,153.914062   C215.269760,152.569931 216.872925,153.123016 218.735458,153.025024   C218.035370,154.954071 216.235016,153.614380 214.413666,153.914062  z" />
<path fill="#FDE9EB" opacity="1.000000" stroke="none" d=" M147.420319,311.907715   C148.275314,310.586609 149.867447,311.125458 151.719177,311.024719   C151.021362,312.937317 149.232941,311.613983 147.420319,311.907715  z" />
<path fill="#FDE3E5" opacity="1.000000" stroke="none" d=" M349.433014,232.043747   C350.150116,230.485123 351.837372,231.171600 353.709930,231.026733   C353.033691,232.929962 351.233337,231.584122 349.433014,232.043747  z" />
<path fill="#FEF0F2" opacity="1.000000" stroke="none" d=" M314.555145,264.096130   C313.601166,265.394348 312.084381,265.120056 310.303528,264.409149   C311.424591,264.125122 312.787994,264.072754 314.555145,264.096130  z" />
<path fill="#FDE4E6" opacity="1.000000" stroke="none" d=" M134.582336,310.094513   C133.805435,311.401917 132.275742,310.866486 130.517334,311.003632   C131.050049,308.830322 132.881699,310.500061 134.582336,310.094513  z" />
<path fill="#FDEAEC" opacity="1.000000" stroke="none" d=" M71.609543,239.040344   C71.971420,240.333939 71.980804,241.789886 71.976303,243.683105   C70.196907,242.700653 71.162239,240.889252 71.609543,239.040344  z" />
<path fill="#FEEBED" opacity="1.000000" stroke="none" d=" M231.162888,329.620239   C230.470062,329.576813 230.022171,328.978973 230.679962,328.430756   C231.514297,327.735382 232.550247,327.964600 233.735504,328.613647   C233.056076,328.987183 232.143066,329.132172 231.162888,329.620239  z" />
<path fill="#FDE7E9" opacity="1.000000" stroke="none" d=" M133.943130,245.599564   C132.606888,245.858261 131.104706,245.755386 129.321228,245.409393   C130.619019,245.190170 132.198105,245.214081 133.943130,245.599564  z" />
<path fill="#FDE6E8" opacity="1.000000" stroke="none" d=" M160.061035,246.399475   C161.396423,246.141724 162.899078,246.244537 164.682373,246.591522   C163.384766,246.810455 161.806549,246.785233 160.061035,246.399475  z" />
<path fill="#FDE6E8" opacity="1.000000" stroke="none" d=" M156.416534,291.911194   C157.270798,290.577911 158.867325,291.125214 160.722427,291.024414   C160.023254,292.934631 158.233002,291.620605 156.416534,291.911194  z" />
<path fill="#FEF4F5" opacity="1.000000" stroke="none" d=" M212.386536,303.936035   C212.025497,302.651642 212.016876,301.211700 212.021179,299.339569   C213.835754,300.305145 212.837677,302.107880 212.386536,303.936035  z" />
<path fill="#FDEAEC" opacity="1.000000" stroke="none" d=" M143.574188,309.098114   C142.717194,310.403229 141.131851,309.870789 139.285858,309.973358   C139.984375,308.071320 141.766449,309.390015 143.574188,309.098114  z" />
<path fill="#FEF4F5" opacity="1.000000" stroke="none" d=" M197.931152,65.614044   C196.649506,65.973961 195.212112,65.982071 193.343643,65.977989   C194.306747,64.163864 196.105331,65.157082 197.931152,65.614044  z" />
<path fill="#FEF1F2" opacity="1.000000" stroke="none" d=" M404.046326,201.387482   C405.334595,201.027161 406.785736,201.018097 408.672241,201.022095   C407.697784,202.821823 405.890503,201.841919 404.046326,201.387482  z" />
<path fill="#FEF7F8" opacity="1.000000" stroke="none" d=" M120.083984,290.403015   C121.403366,290.142548 122.884621,290.239838 124.642746,290.576202   C123.361702,290.797119 121.803780,290.778931 120.083984,290.403015  z" />
<path fill="#FDE6E8" opacity="1.000000" stroke="none" d=" M325.388184,256.949341   C325.145752,255.920944 325.252258,254.738449 325.599731,253.294037   C325.806183,254.286514 325.771667,255.540878 325.388184,256.949341  z" />
<path fill="#FDE7E9" opacity="1.000000" stroke="none" d=" M126.047821,291.387817   C127.074913,291.145050 128.255508,291.251495 129.698944,291.596893   C128.708298,291.802887 127.454811,291.769989 126.047821,291.387817  z" />
<path fill="#FDE9EB" opacity="1.000000" stroke="none" d=" M90.052025,288.388519   C91.079391,288.146088 92.259789,288.252747 93.702484,288.599030   C92.711533,288.804962 91.458298,288.771271 90.052025,288.388519  z" />
<path fill="#FEEDEF" opacity="1.000000" stroke="none" d=" M171.324982,289.913025   C171.844971,288.934052 172.923767,288.683685 173.916412,289.267670   C174.481781,289.600250 173.786194,289.877991 173.156052,290.067780   C172.465225,290.060425 172.048264,290.021790 171.324982,289.913025  z" />
<path fill="#FDE9EB" opacity="1.000000" stroke="none" d=" M229.965515,323.612732   C228.937454,323.855255 227.752319,323.748688 226.302933,323.403015   C227.295273,323.197174 228.551865,323.230438 229.965515,323.612732  z" />
<path fill="#FDEAEC" opacity="1.000000" stroke="none" d=" M150.599670,308.089783   C150.050522,309.212433 148.801498,308.955200 147.261093,308.974548   C147.616028,307.268585 149.095169,308.263763 150.599670,308.089783  z" />
<path fill="#FEECEE" opacity="1.000000" stroke="none" d=" M190.600403,166.089081   C190.051285,167.213242 188.800278,166.955383 187.258347,166.976044   C187.613419,165.266876 189.094543,166.264618 190.600403,166.089081  z" />
<path fill="#FDE1E4" opacity="1.000000" stroke="none" d=" M155.326431,310.910706   C155.740448,310.297516 156.443802,309.300201 157.056473,310.919708   C156.464661,311.045624 156.048065,311.014313 155.326431,310.910706  z" />
<path fill="#FDE2E5" opacity="1.000000" stroke="none" d=" M178.090500,82.378830   C178.958649,82.654167 179.005600,83.538803 178.975281,84.781067   C177.629349,84.725204 178.066238,83.632904 178.090500,82.378830  z" />
<path fill="#FDE9EB" opacity="1.000000" stroke="none" d=" M348.364075,45.991333   C348.024872,45.380245 348.010132,44.632256 347.999084,43.511497   C349.809540,43.645485 348.911774,44.835106 348.364075,45.991333  z" />
<path fill="#FDE2E5" opacity="1.000000" stroke="none" d=" M155.001282,192.347687   C155.456573,192.161148 156.024689,192.283218 156.787018,192.628799   C156.358871,192.786972 155.736481,192.721619 155.001282,192.347687  z" />
<path fill="#FBCDD2" opacity="1.000000" stroke="none" d=" M193.798859,147.215973   C194.466797,147.176849 195.344254,146.694016 195.068329,147.910797   C194.891937,148.044693 194.439926,147.995041 194.223465,147.925491   C193.870377,147.714401 193.733749,147.572861 193.798859,147.215973  z" />
<path fill="#FCDDE0" opacity="1.000000" stroke="none" d=" M194.000305,147.000305   C194.000610,147.000610 194.009521,147.428238 194.008270,147.642090   C193.691925,147.775696 193.376846,147.695450 192.985352,147.353622   C192.908936,147.092026 192.996490,147.016800 193.041550,146.980713   C193.243912,146.867371 193.401230,146.790100 193.778961,146.856110   C193.999390,146.999390 194.000000,147.000000 194.000305,147.000305  z" />
<path fill="#FCD9DD" opacity="1.000000" stroke="none" d=" M320.276215,226.911255   C320.139435,226.551682 320.361023,226.330719 320.899841,226.131790   C320.936127,226.365494 320.741974,226.664185 320.276215,226.911255  z" />
<path fill="#FDE3E5" opacity="1.000000" stroke="none" d=" M246.290054,50.414806   C246.145874,49.627563 248.729111,50.238010 246.880615,49.119762   C244.267426,47.538910 241.128891,46.826469 238.060638,45.392868   C237.878952,44.713181 237.936996,44.399235 238.202606,43.893795   C238.324722,43.686504 238.653336,43.336521 238.825745,43.169502   C247.159882,43.965572 253.649887,48.876270 260.765900,52.293941   C261.553986,52.672432 263.398956,53.202435 262.100555,54.728436   C261.224243,55.758366 259.946320,55.870964 258.498322,55.265831   C254.559494,53.619736 250.535324,52.177876 246.290054,50.414806  z" />
<path fill="#FDE3E5" opacity="1.000000" stroke="none" d=" M195.890869,96.109894   C203.696777,101.311234 203.593796,110.247307 195.360748,113.902283   C194.055237,111.985550 194.640350,110.753349 196.808197,109.977318   C198.509827,107.740997 197.917191,105.321350 197.835907,102.657005   C197.524200,101.736977 197.540878,101.077797 197.136871,100.230011   C196.018738,99.195564 195.124756,98.390839 194.130035,97.273499   C194.598312,96.766670 195.167297,96.572464 195.890869,96.109894  z" />
<path fill="#FDE0E2" opacity="1.000000" stroke="none" d=" M295.002380,86.957512   C296.318329,91.732735 299.863190,95.444054 301.554291,100.075356   C302.080841,101.517334 303.646210,102.701775 302.386536,105.397789   C298.746338,99.225212 295.369751,93.499641 291.931824,87.408340   C292.168579,86.846985 292.466675,86.651360 292.896088,86.218338   C293.159302,85.838898 293.291199,85.696854 293.706116,85.621094   C294.291901,85.937286 294.516235,86.244446 294.828125,86.845734   C294.994720,87.082237 295.043762,86.989624 295.002380,86.957512  z" />
<path fill="#FDE6E9" opacity="1.000000" stroke="none" d=" M151.929031,287.989441   C154.176697,287.990204 155.972168,287.990204 157.767639,287.990204   C149.217010,288.685211 140.644928,289.864716 130.916275,287.495544   C138.645554,286.220764 145.049820,287.627319 151.929031,287.989441  z" />
<path fill="#FEF1F2" opacity="1.000000" stroke="none" d=" M96.604805,245.013245   C99.678406,242.851639 103.550217,244.433151 107.245064,244.032043   C109.345619,243.804031 111.481697,243.903198 113.748871,243.445465   C114.626572,243.401657 115.357193,243.767410 116.087807,244.133163   C116.069649,244.427765 116.051491,244.722351 116.033333,245.016937   C109.710251,245.016937 103.387177,245.016937 96.604805,245.013245  z" />
<path fill="#FEF4F5" opacity="1.000000" stroke="none" d=" M186.717682,169.037079   C191.627640,171.151505 196.431335,169.416626 201.537170,170.073486   C196.662292,171.913101 191.176880,170.629791 185.767685,170.915588   C185.087677,170.951508 184.327927,170.557739 184.682480,169.786240   C184.874420,169.368561 185.769073,169.273819 186.717682,169.037079  z" />
<path fill="#FCD4D8" opacity="1.000000" stroke="none" d=" M215.388947,42.685108   C214.573776,42.888260 214.122681,42.939121 213.337555,42.911682   C213.254562,40.862511 214.879089,40.554943 216.694275,40.040142   C220.393005,41.155544 223.868988,40.147598 227.641876,40.786636   C228.016907,41.001335 227.998962,41.001751 227.998688,40.992840   C228.176910,41.155075 228.355408,41.326225 228.266022,41.753960   C227.998169,42.010548 227.999252,42.423584 227.998627,42.630100   C227.542572,42.888741 227.087158,42.940861 226.295288,42.912834   C222.575150,42.111786 219.155396,42.617859 215.388947,42.685108  z" />
<path fill="#FDE3E5" opacity="1.000000" stroke="none" d=" M193.977478,97.022385   C190.303238,96.679398 187.050644,95.650322 185.574768,91.639442   C187.922943,93.887596 191.674194,93.512611 193.864380,96.650246   C194.029312,96.960869 193.995834,97.002800 193.977478,97.022385  z" />
<path fill="#FDE4E6" opacity="1.000000" stroke="none" d=" M354.202698,121.612686   C351.201019,121.474190 348.530609,120.794525 345.805206,118.429977   C349.869385,117.187073 352.602234,120.087372 355.940063,120.605576   C355.536957,121.104935 354.969757,121.249519 354.202698,121.612686  z" />
<path fill="#FDE4E6" opacity="1.000000" stroke="none" d=" M228.269318,47.589142   C225.417603,48.316174 223.347977,46.754532 221.005768,45.943649   C224.632584,44.362064 228.164841,46.802151 231.920654,46.581696   C230.919556,47.090672 229.728363,47.220539 228.269318,47.589142  z" />
<path fill="#FDE2E5" opacity="1.000000" stroke="none" d=" M229.211197,146.996826   C230.574539,145.394821 232.661530,144.563095 234.795441,143.389938   C235.409653,143.294571 235.981750,143.549408 236.844147,143.925247   C235.967636,146.219070 233.518661,146.647736 231.396393,148.042053   C230.538162,147.731323 230.034805,147.382080 229.211197,146.996826  z" />
<path fill="#FEEBED" opacity="1.000000" stroke="none" d=" M117.589890,286.249268   C119.729004,286.185364 121.695213,285.501862 124.125412,287.182465   C120.183945,288.427368 116.921677,288.097687 113.333572,287.414886   C114.260063,285.865448 115.881065,286.835236 117.589890,286.249268  z" />
<path fill="#FDDEE1" opacity="1.000000" stroke="none" d=" M284.230896,146.855957   C285.543304,148.609726 289.724762,150.261841 286.971771,152.106262   C284.524872,153.745590 284.475891,149.084595 282.347260,147.773788   C282.592712,147.346680 283.058929,147.200317 284.230896,146.855957  z" />
<path fill="#FDE1E4" opacity="1.000000" stroke="none" d=" M251.079529,234.866943   C249.288513,232.969223 245.905869,232.525787 244.839127,229.149506   C248.322540,229.200180 249.929581,231.507965 251.967529,233.636566   C251.800385,234.176331 251.500824,234.394485 251.079529,234.866943  z" />
<path fill="#FDE3E5" opacity="1.000000" stroke="none" d=" M355.204865,115.611328   C352.348145,116.177361 350.949127,114.030930 348.975220,112.902252   C351.904175,111.886147 354.137146,114.233521 356.960144,114.607452   C356.552582,115.104317 355.980011,115.248222 355.204865,115.611328  z" />
<path fill="#FDE9EB" opacity="1.000000" stroke="none" d=" M115.650452,246.582672   C111.416496,246.830353 106.860657,246.825378 102.099915,246.429810   C106.372864,246.136139 110.850716,246.233078 115.650452,246.582672  z" />
<path fill="#FEEDEF" opacity="1.000000" stroke="none" d=" M337.026123,181.375214   C339.048431,185.400497 337.639313,190.090088 337.430420,194.893127   C337.031067,190.679749 337.021484,186.262970 337.026123,181.375214  z" />
<path fill="#FDE2E5" opacity="1.000000" stroke="none" d=" M169.339691,218.419922   C170.255219,218.034775 171.480255,217.899506 172.785522,217.401123   C174.707764,217.192841 176.543640,218.226517 178.753311,217.057648   C179.252075,217.188629 179.392334,217.338684 179.294342,217.684113   C176.073898,219.969086 172.824509,218.878387 169.339691,218.419922  z" />
<path fill="#FCD9DD" opacity="1.000000" stroke="none" d=" M96.660858,258.582306   C92.632477,258.886292 88.285164,258.934906 83.479881,258.909302   C87.407417,257.237366 91.885666,258.070343 96.660858,258.582306  z" />
<path fill="#FCD4D8" opacity="1.000000" stroke="none" d=" M238.771759,43.774551   C238.792145,44.237705 238.588684,44.522816 238.145782,44.925423   C235.010147,44.623627 232.113953,44.204330 229.039948,43.417221   C229.758255,42.877266 230.654404,42.705120 231.773438,42.269688   C232.165253,41.905880 232.334167,41.805359 232.758911,41.851376   C233.014755,41.997917 232.997299,42.002018 232.993881,41.993668   C233.999573,42.929886 235.289230,42.303146 236.713455,42.796616   C237.012329,42.996571 236.998779,43.001678 236.998322,42.994507   C237.417587,43.437141 237.984894,43.511375 238.771759,43.774551  z" />
<path fill="#FDE6E9" opacity="1.000000" stroke="none" d=" M179.635620,222.024475   C175.949203,224.143066 171.569382,222.582550 167.095154,222.428009   C170.982758,222.029419 175.073807,222.019775 179.635620,222.024475  z" />
<path fill="#FDE0E2" opacity="1.000000" stroke="none" d=" M315.922241,103.112694   C317.472870,103.827209 318.937927,104.750648 320.307251,105.799095   C320.738281,106.129135 322.302582,105.564789 321.486572,106.998001   C321.072083,107.725960 320.512665,107.952538 319.597656,107.267776   C318.239532,106.251396 316.654236,105.538605 315.032166,104.369400   C315.199005,103.818115 315.499298,103.594017 315.922241,103.112694  z" />
<path fill="#FEF0F2" opacity="1.000000" stroke="none" d=" M218.545883,118.123596   C220.089691,118.228142 221.524811,117.443596 222.410278,118.937294   C219.002792,120.266846 219.002792,120.266846 218.545883,118.123596  z" />
<path fill="#FDE9EB" opacity="1.000000" stroke="none" d=" M129.892532,212.003143   C128.501709,211.817490 127.237694,212.427231 126.376686,210.819107   C128.819916,209.469330 130.785614,211.653702 132.937927,211.800781   C132.047501,211.867722 131.157089,211.934662 129.892532,212.003143  z" />
<path fill="#FDE7E9" opacity="1.000000" stroke="none" d=" M233.339890,116.976929   C236.359726,114.956444 240.089508,116.363396 243.905121,116.577477   C240.671143,116.971664 237.239609,116.982040 233.339890,116.976929  z" />
<path fill="#FEECEE" opacity="1.000000" stroke="none" d=" M227.726562,40.710033   C224.548676,40.792877 221.046661,41.440895 217.319000,40.302238   C220.498413,40.230618 223.998932,39.512871 227.726562,40.710033  z" />
<path fill="#FDE0E2" opacity="1.000000" stroke="none" d=" M340.413208,190.671997   C340.115021,187.958267 340.067078,184.939423 340.093689,181.473969   C341.678986,184.069199 341.006317,187.226791 340.413208,190.671997  z" />
<path fill="#FEEEF0" opacity="1.000000" stroke="none" d=" M149.624985,220.031357   C146.954926,222.014038 143.564453,220.671829 140.095978,220.423004   C142.989624,220.033981 146.076324,220.027573 149.624985,220.031357  z" />
<path fill="#FEECEE" opacity="1.000000" stroke="none" d=" M136.339081,285.413513   C139.251129,285.170929 142.477844,285.180786 145.901566,285.575317   C142.950287,285.861938 139.802017,285.763916 136.339081,285.413513  z" />
<path fill="#FDE6E8" opacity="1.000000" stroke="none" d=" M257.360687,172.972748   C260.040985,170.987152 263.443909,172.338440 266.929565,172.578354   C264.027222,172.968719 260.925934,172.976624 257.360687,172.972748  z" />
<path fill="#FEEEF0" opacity="1.000000" stroke="none" d=" M158.314941,256.404663   C158.937347,256.015625 159.850586,255.870621 160.824539,255.381042   C162.241882,255.412903 163.598526,255.789337 164.955185,256.165771   C164.931854,256.443756 164.908524,256.721771 164.885208,256.999756   C162.792068,256.882751 160.698944,256.765747 158.314941,256.404663  z" />
<path fill="#FEEBED" opacity="1.000000" stroke="none" d=" M202.166046,133.800598   C200.554810,133.086197 200.498459,132.260910 202.356339,132.039337   C204.143509,131.826202 205.956390,131.828552 207.954865,131.373749   C209.086792,132.203125 208.570816,132.765350 207.286850,132.951523   C205.668991,133.186127 203.956619,132.591171 202.166046,133.800598  z" />
<path fill="#FEEDEF" opacity="1.000000" stroke="none" d=" M316.367615,127.973633   C318.709534,126.072517 321.772430,127.245758 324.921082,127.584969   C322.349182,127.970070 319.587921,127.977638 316.367615,127.973633  z" />
<path fill="#FEF0F2" opacity="1.000000" stroke="none" d=" M273.055603,197.220657   C275.073944,196.200455 273.311066,194.232193 274.622131,193.052917   C274.962280,194.721573 275.536896,196.798676 274.839417,198.274673   C273.748474,200.583389 273.544830,198.215591 273.055603,197.220657  z" />
<path fill="#FDE2E5" opacity="1.000000" stroke="none" d=" M136.678421,202.589813   C134.289703,202.885254 131.602692,202.933350 128.474426,202.903778   C130.738129,201.329834 133.569565,202.016449 136.678421,202.589813  z" />
<path fill="#FEF0F2" opacity="1.000000" stroke="none" d=" M277.597229,192.300293   C277.890442,194.372177 277.932556,196.730286 277.901611,199.523895   C276.374817,197.586365 276.965118,195.079590 277.597229,192.300293  z" />
<path fill="#FEEBED" opacity="1.000000" stroke="none" d=" M357.970734,208.638824   C356.005096,206.646240 357.297638,203.887772 357.585052,201.079025   C357.967590,203.325653 357.974548,205.754868 357.970734,208.638824  z" />
<path fill="#FEEDEF" opacity="1.000000" stroke="none" d=" M216.351807,116.970947   C218.348389,115.014832 221.108124,116.287392 223.924973,116.587250   C221.676346,116.967911 219.242004,116.974159 216.351807,116.970947  z" />
<path fill="#FDE7E9" opacity="1.000000" stroke="none" d=" M162.235306,204.124313   C164.120819,202.343002 162.271866,199.980148 163.601547,198.058533   C163.186996,199.996445 165.796066,202.891235 162.235306,204.124313  z" />
<path fill="#FDE4E6" opacity="1.000000" stroke="none" d=" M342.022949,176.316467   C344.030243,178.078232 342.559509,180.719208 342.904358,183.544922   C341.252472,181.714569 342.315216,179.152725 342.022949,176.316467  z" />
<path fill="#FEECEE" opacity="1.000000" stroke="none" d=" M192.668091,173.024643   C190.909348,175.017502 188.276428,173.572800 185.454834,173.906647   C187.280228,172.254791 189.836929,173.310516 192.668091,173.024643  z" />
<path fill="#FDE0E2" opacity="1.000000" stroke="none" d=" M176.032928,171.245636   C177.455276,170.355957 178.679840,169.430450 180.250229,170.548599   C178.895859,171.650223 177.604553,172.562851 176.032928,171.245636  z" />
<path fill="#FDE6E9" opacity="1.000000" stroke="none" d=" M142.311325,217.406830   C144.383850,217.109680 146.745499,217.059357 149.544708,217.082520   C147.611694,218.657425 145.095993,218.005951 142.311325,217.406830  z" />
<path fill="#FEF7F8" opacity="1.000000" stroke="none" d=" M111.661987,259.026825   C109.997055,260.852081 107.572212,259.787354 105.087708,259.404724   C107.014053,259.030792 109.112801,259.024231 111.661987,259.026825  z" />
<path fill="#FDEAEC" opacity="1.000000" stroke="none" d=" M165.592926,198.311523   C165.897263,200.052429 165.956207,202.080017 166.090378,204.536743   C164.133667,203.069336 165.071106,200.791290 165.592926,198.311523  z" />
<path fill="#FDE1E4" opacity="1.000000" stroke="none" d=" M220.140503,249.086655   C220.693420,247.273956 221.907791,246.530441 223.998337,247.365051   C223.178848,248.245590 222.424164,249.056519 221.356476,250.001663   C220.827499,249.828873 220.611526,249.521851 220.140503,249.086655  z" />
<path fill="#FDE6E8" opacity="1.000000" stroke="none" d=" M194.313019,246.408234   C196.050522,246.108017 198.073883,246.050507 200.529083,245.954956   C199.030655,247.812119 196.781906,246.946625 194.313019,246.408234  z" />
<path fill="#FDDFE1" opacity="1.000000" stroke="none" d=" M199.692078,67.588287   C197.942459,67.879837 195.913727,67.931496 193.455872,67.907410   C195.060455,66.414574 197.242630,66.959732 199.692078,67.588287  z" />
<path fill="#FDEAEC" opacity="1.000000" stroke="none" d=" M122.332924,284.413635   C124.264702,284.181488 126.498764,284.196716 128.917206,284.586090   C126.946129,284.860474 124.790665,284.760712 122.332924,284.413635  z" />
<path fill="#FEF4F5" opacity="1.000000" stroke="none" d=" M224.587952,129.331726   C224.890091,131.063873 224.952728,133.083191 225.062042,135.533417   C223.136902,134.055069 224.089447,131.795441 224.587952,129.331726  z" />
<path fill="#FDE5E7" opacity="1.000000" stroke="none" d=" M215.305389,148.404831   C217.047501,148.099487 219.075287,148.041031 221.533936,147.920120   C220.055984,149.854172 217.784714,148.941528 215.305389,148.404831  z" />
<path fill="#FEF3F4" opacity="1.000000" stroke="none" d=" M198.020874,101.802727   C197.953369,103.673141 197.850189,105.225227 197.393097,106.941437   C197.015396,105.032669 196.991608,102.959778 196.940277,100.443588   C197.270203,100.494995 197.627701,100.989693 198.020874,101.802727  z" />
<path fill="#FDE4E6" opacity="1.000000" stroke="none" d=" M342.587280,186.329651   C342.819458,188.264481 342.804413,190.502380 342.414368,192.925232   C342.139587,190.951035 342.239777,188.791885 342.587280,186.329651  z" />
<path fill="#FEEEF0" opacity="1.000000" stroke="none" d=" M161.027481,198.320892   C162.963989,199.368698 161.566040,201.435806 162.068954,203.579224   C160.276016,202.555740 161.267044,200.512085 161.027481,198.320892  z" />
<path fill="#FEECEE" opacity="1.000000" stroke="none" d=" M66.591736,266.300812   C66.878044,267.731079 66.928154,269.424408 66.899048,271.534058   C65.499786,270.255341 65.918900,268.410339 66.591736,266.300812  z" />
<path fill="#FEF7F8" opacity="1.000000" stroke="none" d=" M340.964050,64.633865   C339.071594,63.336441 340.213623,61.226685 340.594604,59.089905   C340.960876,60.681347 340.967651,62.438213 340.964050,64.633865  z" />
<path fill="#FDE1E4" opacity="1.000000" stroke="none" d=" M257.999390,240.337982   C259.222992,240.611374 260.105804,241.436981 259.816345,243.010574   C257.831879,243.312057 258.194397,241.773468 257.999390,240.337982  z" />
<path fill="#FEECEE" opacity="1.000000" stroke="none" d=" M107.639442,285.955627   C108.056976,286.102997 108.043312,286.275116 108.064529,286.703766   C106.273743,286.858795 104.448090,286.757263 102.329643,286.408813   C103.760643,286.101349 105.484444,286.040863 107.639442,285.955627  z" />
<path fill="#FEF4F5" opacity="1.000000" stroke="none" d=" M265.031128,250.355865   C266.944061,251.653488 265.782898,253.769730 265.404419,255.911377   C265.036194,254.317291 265.027618,252.556519 265.031128,250.355865  z" />
<path fill="#FEEDEF" opacity="1.000000" stroke="none" d=" M368.405029,209.697784   C368.117889,208.264160 368.065796,206.565231 368.088379,204.446808   C369.526855,205.722717 369.065430,207.579178 368.405029,209.697784  z" />
<path fill="#FDE6E9" opacity="1.000000" stroke="none" d=" M352.712036,138.147003   C352.964417,139.268814 353.201447,140.637695 351.662231,141.369751   C350.383392,139.956207 351.526917,139.147858 352.712036,138.147003  z" />
<path fill="#FEEDEF" opacity="1.000000" stroke="none" d=" M140.328674,250.742828   C138.919678,250.967148 137.866653,250.584641 136.980499,249.736221   C137.838074,248.502411 138.773972,249.031433 139.897430,249.858841   C140.233139,250.260864 140.382797,250.392487 140.328674,250.742828  z" />
<path fill="#FDE6E8" opacity="1.000000" stroke="none" d=" M381.410828,203.679810   C381.182648,202.063889 381.201324,200.153442 381.590393,198.066299   C381.859711,199.721497 381.758698,201.553375 381.410828,203.679810  z" />
<path fill="#FDE6E8" opacity="1.000000" stroke="none" d=" M257.403381,251.705597   C257.114594,250.267593 257.062958,248.564270 257.084167,246.439941   C258.525787,247.718323 258.075470,249.580002 257.403381,251.705597  z" />
<path fill="#FDE6E8" opacity="1.000000" stroke="none" d=" M214.831238,228.182968   C215.744965,228.174164 216.293198,228.830933 215.811234,229.385101   C214.804581,230.542587 213.432190,230.008774 212.012115,229.381943   C212.773834,228.850632 213.697083,228.661270 214.831238,228.182968  z" />
<path fill="#FDE6E9" opacity="1.000000" stroke="none" d=" M205.142929,167.875549   C204.744415,167.653625 204.636383,167.342865 204.275299,166.935516   C204.927841,165.919067 206.199005,165.483307 207.006317,166.423416   C207.450424,166.940536 206.036346,167.356110 205.142929,167.875549  z" />
<path fill="#FEF1F2" opacity="1.000000" stroke="none" d=" M361.319672,197.977814   C362.297699,196.183533 364.106293,197.157135 365.951538,197.612183   C364.660400,197.972977 363.207886,197.982269 361.319672,197.977814  z" />
<path fill="#FEEEF0" opacity="1.000000" stroke="none" d=" M281.974487,237.711075   C280.065247,237.014359 281.378571,235.228806 281.088470,233.416138   C282.415558,234.267258 281.880463,235.858963 281.974487,237.711075  z" />
<path fill="#FEF0F2" opacity="1.000000" stroke="none" d=" M178.846313,258.042114   C178.422958,258.895721 180.231689,261.524750 177.055481,260.376343   C177.987534,259.813599 176.983719,257.832184 178.846313,258.042114  z" />
<path fill="#FDEAEC" opacity="1.000000" stroke="none" d=" M207.977753,129.684937   C206.177750,128.707535 207.162613,126.899651 207.613678,125.057060   C207.973923,126.347290 207.983582,127.798325 207.977753,129.684937  z" />
<path fill="#FDE6E9" opacity="1.000000" stroke="none" d=" M374.860901,127.724182   C374.101288,127.904137 373.028992,128.306808 372.523468,127.194237   C372.443085,127.017273 372.643097,126.512856 372.813324,126.455345   C373.737915,126.142921 374.226807,126.835846 374.860901,127.724182  z" />
<path fill="#FDE7E9" opacity="1.000000" stroke="none" d=" M225.797211,151.269836   C226.067764,152.438187 226.036789,153.839752 225.974854,155.660309   C225.943893,156.079300 226.033356,156.017822 226.009521,155.969055   C225.857056,156.102005 225.728455,156.283707 225.319580,156.283844   C225.117050,154.561813 224.675537,152.969849 225.797211,151.269836  z" />
<path fill="#FEECEE" opacity="1.000000" stroke="none" d=" M277.175781,254.077087   C277.097229,253.149643 276.765045,251.737610 278.178070,252.106094   C279.673889,252.496185 278.883240,253.810623 278.384735,254.941238   C277.836151,254.793381 277.629333,254.496140 277.175781,254.077087  z" />
<path fill="#FDE7E9" opacity="1.000000" stroke="none" d=" M206.689606,134.591705   C205.395706,134.814743 203.819138,134.794312 202.062897,134.419724   C203.391129,134.159790 204.899033,134.254013 206.689606,134.591705  z" />
<path fill="#FEEEF0" opacity="1.000000" stroke="none" d=" M345.402344,46.843384   C344.923340,46.264923 344.398926,45.975628 343.356873,45.904404   C343.884277,44.900043 345.001678,44.681610 346.002502,45.255318   C346.717285,45.665039 346.073975,46.281479 345.402344,46.843384  z" />
<path fill="#FEECEE" opacity="1.000000" stroke="none" d=" M158.973572,211.703308   C157.065567,211.029663 158.409286,209.235428 157.966278,207.437805   C159.501740,208.161407 158.832581,209.836960 158.973572,211.703308  z" />
<path fill="#FDDEE1" opacity="1.000000" stroke="none" d=" M129.304825,208.407410   C130.607376,208.187088 132.192688,208.211548 133.947250,208.597961   C132.606873,208.857315 131.097214,208.754761 129.304825,208.407410  z" />
<path fill="#FEEDEF" opacity="1.000000" stroke="none" d=" M166.376862,189.123383   C166.037216,188.089569 165.719528,186.798645 167.169388,187.116608   C168.695801,187.451370 167.881805,188.812531 167.383270,189.950104   C166.977783,189.772522 166.823120,189.492172 166.376862,189.123383  z" />
<path fill="#FEF3F4" opacity="1.000000" stroke="none" d=" M204.978455,210.655762   C203.172729,209.687881 204.161362,207.886093 204.613525,206.050400   C204.972992,207.333420 204.981781,208.778336 204.978455,210.655762  z" />
<path fill="#FEF0F2" opacity="1.000000" stroke="none" d=" M332.466675,209.632629   C333.484436,209.311417 333.817413,209.752609 333.590637,210.450058   C333.475464,210.804337 332.903168,211.326721 332.666351,211.266479   C331.893982,211.070023 332.095581,210.403992 332.466675,209.632629  z" />
<path fill="#FDE9EB" opacity="1.000000" stroke="none" d=" M112.690628,285.592499   C111.572350,285.898193 110.171936,285.960327 108.350769,286.045746   C107.941910,285.896759 107.953812,285.724457 107.930023,285.295624   C109.399040,285.142365 110.903763,285.245636 112.690628,285.592499  z" />
<path fill="#FEEDEF" opacity="1.000000" stroke="none" d=" M380.410217,214.680756   C380.193207,213.388489 380.216339,211.814056 380.599182,210.073776   C380.856049,211.404816 380.753204,212.901703 380.410217,214.680756  z" />
<path fill="#FEEEF0" opacity="1.000000" stroke="none" d=" M272.596710,191.291702   C272.880402,192.417236 272.935028,193.790863 272.916443,195.572235   C271.573761,194.618912 271.898315,193.087112 272.596710,191.291702  z" />
<path fill="#FEF0F2" opacity="1.000000" stroke="none" d=" M331.662292,213.020157   C331.187134,213.912704 330.368164,214.828674 329.264893,215.870605   C329.033203,214.436905 329.729828,213.387146 331.662292,213.020157  z" />
<path fill="#FEEBED" opacity="1.000000" stroke="none" d=" M112.304153,283.404083   C113.602745,283.186218 115.183014,283.212646 116.930687,283.599487   C115.594009,283.856049 114.089920,283.752228 112.304153,283.404083  z" />
<path fill="#FEEDEF" opacity="1.000000" stroke="none" d=" M332.403259,196.699158   C332.183868,195.398666 332.210724,193.817886 332.598511,192.070953   C332.856140,193.409500 332.752838,194.914185 332.403259,196.699158  z" />
<path fill="#FEEBED" opacity="1.000000" stroke="none" d=" M198.254517,282.609802   C197.133453,282.809235 196.706924,282.121613 197.173447,281.588348   C198.186020,280.430847 199.561523,281.023499 200.976929,281.620392   C200.257553,282.101105 199.377548,282.239563 198.254517,282.609802  z" />
<path fill="#FEEDEF" opacity="1.000000" stroke="none" d=" M294.140289,85.849518   C293.837616,85.995728 293.432098,85.993279 293.229736,85.987106   C292.697571,85.204826 292.367706,84.428711 292.036774,83.308777   C293.014252,83.036041 293.773560,83.398811 294.057770,84.788040   C294.215424,85.317169 294.329193,85.510239 294.140289,85.849518  z" />
<path fill="#FEF7F8" opacity="1.000000" stroke="none" d=" M221.582550,194.313080   C221.807343,195.608521 221.782669,197.178635 221.400711,198.916168   C221.139984,197.584991 221.236526,196.086380 221.582550,194.313080  z" />
<path fill="#FDEAEC" opacity="1.000000" stroke="none" d=" M179.719055,174.023636   C179.021866,175.941055 177.228668,174.613464 175.413864,174.913391   C176.265961,173.577454 177.864029,174.125809 179.719055,174.023636  z" />
<path fill="#FDE7E9" opacity="1.000000" stroke="none" d=" M287.024750,230.256470   C288.736084,230.611328 287.730316,232.093079 287.907867,233.597198   C286.791626,233.045517 287.045624,231.797073 287.024750,230.256470  z" />
<path fill="#FEF0F2" opacity="1.000000" stroke="none" d=" M195.469849,297.613586   C195.416397,298.067810 195.188278,298.345032 194.960175,298.622253   C194.782425,298.438477 194.604660,298.254700 194.426895,298.070923   C194.716324,297.859497 195.005753,297.648071 195.469849,297.613586  z" />
<path fill="#FDE4E6" opacity="1.000000" stroke="none" d=" M77.256058,254.974487   C77.613739,253.272095 79.089828,254.262451 80.595123,254.095764   C80.040573,255.205826 78.795837,254.957947 77.256058,254.974487  z" />
<path fill="#FEEBED" opacity="1.000000" stroke="none" d=" M94.289963,285.401611   C95.282440,285.195190 96.538734,285.227722 97.947861,285.610291   C96.918381,285.853760 95.736076,285.747162 94.289963,285.401611  z" />
<path fill="#FEF4F5" opacity="1.000000" stroke="none" d=" M165.835999,304.921448   C166.526215,304.937256 166.940689,304.982086 167.660034,305.096863   C167.126877,306.056976 166.046814,306.309570 165.058517,305.716705   C164.505676,305.385040 165.209610,305.111511 165.835999,304.921448  z" />
<path fill="#FDEAEC" opacity="1.000000" stroke="none" d=" M103.712959,284.600159   C102.718811,284.806641 101.460526,284.773499 100.048920,284.389893   C101.080002,284.146454 102.264412,284.253510 103.712959,284.600159  z" />
<path fill="#FEEBED" opacity="1.000000" stroke="none" d=" M104.286179,282.399292   C105.279991,282.192932 106.537766,282.226318 107.948700,282.609924   C106.917953,282.853088 105.734047,282.746033 104.286179,282.399292  z" />
<path fill="#FDE6E8" opacity="1.000000" stroke="none" d=" M158.707855,259.596405   C157.716095,259.802429 156.459351,259.770691 155.048294,259.389099   C156.076950,259.145721 157.259918,259.252167 158.707855,259.596405  z" />
<path fill="#FEEBED" opacity="1.000000" stroke="none" d=" M97.290215,281.401733   C98.283638,281.194946 99.541138,281.227264 100.951508,281.610168   C99.921013,281.854095 98.737648,281.747498 97.290215,281.401733  z" />
<path fill="#FDEAEC" opacity="1.000000" stroke="none" d=" M174.762238,259.614288   C173.924210,259.892578 172.864471,259.939117 171.411896,259.914307   C172.068787,258.740479 173.275696,258.839935 174.762238,259.614288  z" />
<path fill="#FEF0F2" opacity="1.000000" stroke="none" d=" M236.788177,42.713646   C235.828339,42.840946 234.644333,42.685322 233.225403,42.257507   C234.181656,42.133789 235.372849,42.282257 236.788177,42.713646  z" />
<path fill="#FEEEF0" opacity="1.000000" stroke="none" d=" M281.398682,251.719086   C281.191223,250.724991 281.225525,249.468735 281.609344,248.059692   C281.852722,249.090225 281.746552,250.273575 281.398682,251.719086  z" />
<path fill="#FDE5E7" opacity="1.000000" stroke="none" d=" M202.702026,218.593567   C201.712250,218.799057 200.456512,218.768921 199.046478,218.389038   C200.073486,218.145493 201.254791,218.251709 202.702026,218.593567  z" />
<path fill="#FDE5E7" opacity="1.000000" stroke="none" d=" M204.595642,216.511459   C205.421463,216.275406 205.723633,216.558945 205.595200,217.202591   C205.568466,217.336533 205.382385,217.517334 205.248444,217.537918   C204.601913,217.637222 204.330032,217.321716 204.595642,216.511459  z" />
<path fill="#FEEDEF" opacity="1.000000" stroke="none" d=" M145.715973,214.601212   C144.721909,214.807968 143.464523,214.774338 142.054535,214.390472   C143.085510,214.147125 144.269058,214.253967 145.715973,214.601212  z" />
<path fill="#FDE2E5" opacity="1.000000" stroke="none" d=" M371.597260,209.290176   C371.804230,210.284653 371.772614,211.544724 371.390198,212.959900   C371.145782,211.928604 371.252258,210.742172 371.597260,209.290176  z" />
<path fill="#FDE9EB" opacity="1.000000" stroke="none" d=" M318.597412,75.292206   C318.803680,76.284096 318.771667,77.540245 318.389648,78.949615   C318.146149,77.920708 318.252625,76.738586 318.597412,75.292206  z" />
<path fill="#FEEBED" opacity="1.000000" stroke="none" d=" M240.401031,202.710480   C240.194641,201.717697 240.227127,200.460876 240.609924,199.051453   C240.853455,200.081375 240.746689,201.263916 240.401031,202.710480  z" />
<path fill="#FDE6E8" opacity="1.000000" stroke="none" d=" M160.021835,186.222534   C161.685425,186.582397 160.761795,188.068893 161.080566,189.596863   C159.744873,189.200363 160.042419,187.846985 160.021835,186.222534  z" />
<path fill="#FEF1F2" opacity="1.000000" stroke="none" d=" M185.602966,83.277420   C185.811539,84.273109 185.776520,85.529716 185.391739,86.938194   C185.147766,85.906158 185.253586,84.722237 185.602966,83.277420  z" />
<path fill="#FDDFE1" opacity="1.000000" stroke="none" d=" M146.057053,241.286880   C146.840820,241.200699 147.430557,241.287811 148.020309,241.374939   C148.001617,241.487183 148.017761,241.672516 147.958923,241.700562   C147.216187,242.054672 146.484650,242.202148 146.057053,241.286880  z" />
<path fill="#FDDFE1" opacity="1.000000" stroke="none" d=" M151.029572,242.651337   C151.539734,241.858459 152.840729,241.882233 152.859100,242.348465   C152.901978,243.436920 151.826279,242.811172 151.029572,242.651337  z" />
<path fill="#FDE7E9" opacity="1.000000" stroke="none" d=" M199.742004,167.024811   C199.386002,168.728546 197.907242,167.738480 196.401413,167.909485   C196.951874,166.787094 198.200745,167.043198 199.742004,167.024811  z" />
<path fill="#FEEBED" opacity="1.000000" stroke="none" d=" M187.290070,245.401627   C188.282837,245.195038 189.539505,245.227417 190.949036,245.610001   C189.919250,245.853683 188.736618,245.747147 187.290070,245.401627  z" />
<path fill="#FEECEE" opacity="1.000000" stroke="none" d=" M228.305649,42.004044   C227.997147,41.839493 227.996140,41.668434 227.996765,41.240654   C228.718872,41.135056 229.439331,41.286179 230.159775,41.437298   C229.644226,41.624046 229.128677,41.810795 228.305649,42.004044  z" />
<path fill="#FDE6E8" opacity="1.000000" stroke="none" d=" M161.182205,190.125793   C161.771774,189.913040 162.509613,189.966797 163.610840,190.092575   C163.162979,191.052917 162.288818,191.211334 161.182205,190.125793  z" />
<path fill="#FDE2E5" opacity="1.000000" stroke="none" d=" M269.974609,198.796295   C268.644165,198.728180 269.059021,197.641678 269.091003,196.380157   C269.960785,196.660065 270.005829,197.548828 269.974609,198.796295  z" />
<path fill="#FDE2E5" opacity="1.000000" stroke="none" d=" M371.026978,203.220398   C372.353210,203.284271 371.926422,204.369736 371.905304,205.619904   C371.046021,205.341309 371.000610,204.458694 371.026978,203.220398  z" />
<path fill="#FDE5E7" opacity="1.000000" stroke="none" d=" M162.922928,208.944916   C163.050446,209.538925 163.020203,209.955887 162.917145,210.678055   C162.294647,210.263474 161.287277,209.560059 162.922928,208.944916  z" />
<path fill="#FDEAEC" opacity="1.000000" stroke="none" d=" M140.076157,239.694672   C139.518860,239.725296 139.123688,239.595901 138.728531,239.466492   C138.836945,239.359787 138.969177,239.146378 139.049744,239.164368   C139.453354,239.254501 139.843460,239.405212 140.076157,239.694672  z" />
<path fill="#FDEAEC" opacity="1.000000" stroke="none" d=" M134.911438,238.302032   C135.473572,238.270401 135.872787,238.401886 136.272003,238.533386   C136.163010,238.641953 136.029648,238.858963 135.949112,238.840866   C135.541367,238.749222 135.147354,238.596466 134.911438,238.302032  z" />
<path fill="#FEEBED" opacity="1.000000" stroke="none" d=" M321.767303,222.988525   C321.809143,223.250443 321.617126,223.519012 321.205078,223.908752   C320.195831,223.169815 320.931061,223.117722 321.767303,222.988525  z" />
<path fill="#FDE6E8" opacity="1.000000" stroke="none" d=" M215.120453,200.987427   C214.873489,201.102570 214.428619,201.015045 214.215790,200.936340   C214.456024,200.559158 214.909103,200.260666 215.722061,200.014313   C215.843765,200.335037 215.605591,200.603653 215.120453,200.987427  z" />
<path fill="#FEEDEF" opacity="1.000000" stroke="none" d=" M291.988892,83.007179   C291.555115,82.651138 290.715393,82.395271 291.612396,81.674728   C291.746002,81.944695 291.879608,82.214653 292.024475,82.724792   C292.035675,82.964966 292.005402,82.994324 291.988892,83.007179  z" />
<path fill="#FDE1E4" opacity="1.000000" stroke="none" d=" M256.981140,238.703278   C256.670105,238.542358 256.348633,238.073730 256.017944,237.297058   C256.329407,237.457870 256.650085,237.926727 256.981140,238.703278  z" />
<path fill="#FEF0F2" opacity="1.000000" stroke="none" d=" M238.996521,43.715069   C238.439819,43.795155 237.884003,43.637711 237.163040,43.233799   C237.442581,42.980766 237.887268,42.974201 238.665070,42.985062   C238.998169,43.002483 238.997437,43.477539 238.996521,43.715069  z" />
<path fill="#FDE7E9" opacity="1.000000" stroke="none" d=" M230.243469,284.991028   C230.336365,284.520630 230.614853,283.707794 231.348724,284.596161   C231.074783,284.735474 230.800842,284.874817 230.243469,284.991028  z" />
<path fill="#FEEBED" opacity="1.000000" stroke="none" d=" M191.212814,272.877686   C191.125809,272.560181 191.249771,272.119141 191.373749,271.678101   C192.105621,272.003510 191.706360,272.381531 191.212814,272.877686  z" />
<path fill="#FDEAEC" opacity="1.000000" stroke="none" d=" M267.875732,57.792648   C267.560364,57.880630 267.124359,57.756828 266.688385,57.633026   C267.009857,56.917919 267.385010,57.300915 267.875732,57.792648  z" />
<path fill="#FEEBED" opacity="1.000000" stroke="none" d=" M188.166443,216.953857   C187.902435,216.960526 187.963760,216.491089 187.896149,216.264008   C188.271225,216.217102 188.713898,216.397278 189.156586,216.577423   C188.914536,216.700684 188.672485,216.823944 188.166443,216.953857  z" />
<path fill="#FDE5E7" opacity="1.000000" stroke="none" d=" M248.763489,281.016602   C248.676666,281.498169 248.382065,282.263214 247.662201,281.406158   C247.933060,281.267914 248.203918,281.129669 248.763489,281.016602  z" />
<path fill="#FDE1E4" opacity="1.000000" stroke="none" d=" M255.993896,237.004822   C255.866272,236.862320 255.744492,236.715179 255.622711,236.568054   C255.713058,236.615295 255.803406,236.662552 255.951233,236.849396   C256.008728,236.989014 255.999741,237.000183 255.993896,237.004822  z" />
<path fill="#FDE6E9" opacity="1.000000" stroke="none" d=" M352.993652,137.991669   C353.092163,137.955902 353.197693,137.928879 353.160889,137.958282   C353.018555,138.014694 353.000702,138.000397 352.993652,137.991669  z" />
<path fill="#FDE6E9" opacity="1.000000" stroke="none" d=" M377.524567,129.546661   C377.471558,129.576660 377.577576,129.516647 377.524567,129.546661  z" />
<path fill="#FDE1E4" opacity="1.000000" stroke="none" d=" M257.990326,240.007431   C257.656067,239.917465 257.396545,239.729599 257.097137,239.230988   C256.991547,239.010986 257.000122,238.999924 257.005920,238.995407   C257.338043,239.084320 257.599640,239.269211 257.904999,239.764038   C258.013428,239.982498 257.999359,240.000305 257.990326,240.007431  z" />
<path fill="#FEEEF0" opacity="1.000000" stroke="none" d=" M232.930084,41.820244   C232.845047,42.001999 232.675339,42.006077 232.250992,42.008274   C232.176651,41.645386 232.347198,41.261635 232.930084,41.820244  z" />
<path fill="#FDEAEC" opacity="1.000000" stroke="none" d=" M268.001831,57.998428   C268.123199,58.144623 268.242737,58.292412 268.362274,58.440205   C268.273438,58.390244 268.184601,58.340282 268.046051,58.147377   C267.996338,58.004436 268.000000,58.000031 268.001831,57.998428  z" />
<path fill="#FDE6E8" opacity="1.000000" stroke="none" d=" M215.962189,199.950287   C216.066818,199.882431 216.202881,199.080612 216.216507,199.986053   C216.081940,200.066422 215.999390,199.991684 215.962189,199.950287  z" />
<path fill="#FDE7E9" opacity="1.000000" stroke="none" d=" M227.443909,286.536682   C227.403763,286.474579 227.484055,286.598785 227.443909,286.536682  z" />
<path fill="#FCD9DD" opacity="1.000000" stroke="none" d=" M317.991577,225.988998   C318.087036,225.951279 318.190765,225.923828 318.157349,225.956055   C318.020203,226.015732 317.999878,225.999268 317.991577,225.988998  z" />
<path fill="#FDE7E9" opacity="1.000000" stroke="none" d=" M230.017456,285.023071   C229.909531,285.019653 229.911850,285.809906 229.819382,285.033478   C229.960022,284.967896 230.000046,285.002960 230.017456,285.023071  z" />
<path fill="#FEEBED" opacity="1.000000" stroke="none" d=" M322.824158,222.077820   C322.857391,222.245148 322.649841,222.511536 322.212708,222.889740   C322.183197,222.726669 322.383270,222.451782 322.824158,222.077820  z" />
<path fill="#FEEBED" opacity="1.000000" stroke="none" d=" M192.704132,269.134033   C192.904770,269.167328 192.959518,269.327179 193.105789,269.723572   C192.984283,269.726959 192.771255,269.493774 192.704132,269.134033  z" />
<path fill="#FEEBED" opacity="1.000000" stroke="none" d=" M186.887756,215.666534   C186.694870,215.773636 186.370773,215.674057 185.964020,215.305664   C186.206467,215.108841 186.498184,215.249832 186.887756,215.666534  z" />
<path fill="#FDE5E7" opacity="1.000000" stroke="none" d=" M245.469971,282.452332   C245.524170,282.421539 245.415787,282.483093 245.469971,282.452332  z" />
<path fill="#FEF0F2" opacity="1.000000" stroke="none" d=" M328.737427,215.970306   C328.816772,216.341736 328.645020,216.721832 328.057678,216.154968   C328.133911,215.975479 328.306335,215.968079 328.737427,215.970306  z" />
<path fill="#FDE6E9" opacity="1.000000" stroke="none" d=" M375.013428,127.989838   C375.146515,128.135361 375.266144,128.292252 375.385742,128.449142   C375.289886,128.403503 375.194061,128.357864 375.037872,128.170380   C374.977539,128.028549 374.999969,128.001205 375.013428,127.989838  z" />
<path fill="#FDE5E7" opacity="1.000000" stroke="none" d=" M248.982635,280.975769   C249.090698,281.005341 249.110855,280.140198 249.188644,280.975159   C249.052185,281.041748 249.003891,280.999695 248.982635,280.975769  z" />
<path fill="#FEEBED" opacity="1.000000" stroke="none" d=" M190.999329,272.999329   C190.907822,273.031952 190.816986,273.065247 190.863983,273.049896   C191.001831,273.001221 191.000000,273.000000 190.999329,272.999329  z" />
<path fill="#FBCDD2" opacity="1.000000" stroke="none" d=" M193.922577,146.837067   C193.999390,146.999390 193.542633,146.971970 193.314621,146.958313   C193.246063,146.591385 193.422882,146.287003 193.922577,146.837067  z" />
<path fill="#FCD2D6" opacity="1.000000" stroke="none" d=" M261.534973,90.438904   C263.693268,88.889000 259.402313,87.146095 261.734314,86.170670   C263.928711,85.252800 264.919739,87.406738 266.109283,88.617760   C273.006592,95.639549 280.648590,102.023796 285.924438,110.473816   C288.706146,114.929092 291.252319,119.520889 292.489685,124.798988   C292.953857,126.779121 293.056641,128.266281 291.322113,128.802582   C289.478790,129.372528 288.914368,127.283524 288.573547,126.011772   C286.348663,117.709465 281.332214,111.099304 275.501526,104.709877   C274.848999,104.652008 274.664978,104.559738 274.254211,104.257484   C273.377228,103.254059 272.771759,102.419739 271.711853,101.567566   C270.524323,100.433334 269.870209,99.279381 268.812622,98.039421   C268.058655,97.180351 267.529144,96.548737 266.815308,95.687469   C266.309387,94.984589 266.031097,94.482323 265.462402,93.849533   C264.789917,93.327431 264.284180,93.065651 263.475983,92.722641   C262.447388,92.165848 261.857880,91.591606 261.534973,90.438904  z" />
<path fill="#FDDFE1" opacity="1.000000" stroke="none" d=" M269.260010,96.902039   C270.205994,98.075264 270.846008,99.158768 271.722595,100.383987   C272.954803,101.575012 273.519897,102.971069 274.832306,104.222275   C274.992706,104.550064 275.083588,104.817879 275.058289,104.781082   C275.344360,105.423454 275.655701,106.102623 276.003723,107.347298   C276.267670,108.469727 276.127991,108.910393 275.240479,109.143997   C265.569641,97.508949 255.835220,86.436867 242.547394,79.242340   C241.368011,78.603767 239.558807,78.036148 240.202011,76.722427   C241.122803,74.841698 242.657440,76.481873 243.901993,76.986008   C250.642242,79.716301 255.389511,85.178207 261.256226,89.787460   C262.049500,90.669807 262.587250,91.220596 263.280640,91.891632   C264.200592,92.197136 264.846161,92.650627 265.848511,92.972473   C266.440491,93.506508 266.743195,94.019890 267.074310,94.841614   C267.543427,95.900551 268.098572,96.523674 269.260010,96.902039  z" />
<path fill="#FCD1D6" opacity="1.000000" stroke="none" d=" M328.422455,62.800442   C326.821442,59.776218 325.232147,56.673225 329.438141,55.141056   C330.856201,54.624489 333.187683,54.175514 334.439331,55.971069   C335.521423,57.523323 335.033051,59.297115 334.551208,61.088749   C333.852295,63.687401 331.927673,62.888691 330.284973,62.997280   C329.795349,63.029648 329.301636,62.999222 328.422455,62.800442  z" />
<path fill="#FDE5E7" opacity="1.000000" stroke="none" d=" M274.998901,109.377220   C275.163940,108.838943 275.468414,108.624748 275.906616,108.161682   C279.984528,111.407150 281.522034,116.236862 283.330078,120.943672   C280.289490,117.395920 278.331207,113.102112 274.998901,109.377220  z" />
<path fill="#FEEEF0" opacity="1.000000" stroke="none" d=" M215.475861,42.909714   C218.394333,41.253567 221.882126,42.079212 225.650284,42.581734   C222.614853,42.882465 219.270859,42.932243 215.475861,42.909714  z" />
<path fill="#FBCED3" opacity="1.000000" stroke="none" d=" M312.239563,137.352631   C314.099487,133.313171 317.410492,134.762268 319.589478,135.424347   C321.595123,136.033783 321.785187,138.888763 321.394958,141.094467   C320.790131,144.512787 318.079193,144.240204 315.682800,143.955933   C311.908020,143.508133 311.783691,140.660660 312.239563,137.352631  z" />
<path fill="#FBCCD1" opacity="1.000000" stroke="none" d=" M262.738007,179.757950   C266.253265,182.097702 266.228821,185.448486 264.397217,187.659973   C262.750305,189.648438 259.154114,190.154251 256.853973,188.189163   C254.022171,185.769836 254.881775,182.802979 257.521210,180.094788   C259.284210,179.147018 260.831299,179.633865 262.738007,179.757950  z" />
<path fill="#FEEEF0" opacity="1.000000" stroke="none" d=" M262.973938,179.611206   C261.678040,179.970581 260.207733,179.982086 258.295746,179.976608   C259.288147,178.204681 261.101807,179.145889 262.973938,179.611206  z" />
</svg>